<svg id="Layer_1" data-name="Layer 1" xmlns="http://www.w3.org/2000/svg" xmlns:xlink="http://www.w3.org/1999/xlink" viewBox="0 0 1000.03 1000.03"><defs><style>.cls-1{fill:#fff;}.cls-2{clip-path:url(#clip-path);}.cls-3{fill:#b72f42;}.cls-10,.cls-100,.cls-101,.cls-102,.cls-103,.cls-104,.cls-105,.cls-106,.cls-107,.cls-108,.cls-109,.cls-11,.cls-110,.cls-111,.cls-112,.cls-113,.cls-114,.cls-115,.cls-116,.cls-117,.cls-118,.cls-119,.cls-12,.cls-120,.cls-121,.cls-122,.cls-123,.cls-124,.cls-125,.cls-126,.cls-127,.cls-128,.cls-129,.cls-13,.cls-130,.cls-131,.cls-132,.cls-133,.cls-134,.cls-135,.cls-136,.cls-137,.cls-138,.cls-139,.cls-14,.cls-140,.cls-141,.cls-142,.cls-143,.cls-144,.cls-145,.cls-146,.cls-147,.cls-148,.cls-149,.cls-15,.cls-150,.cls-151,.cls-152,.cls-153,.cls-154,.cls-155,.cls-156,.cls-157,.cls-158,.cls-159,.cls-16,.cls-160,.cls-161,.cls-162,.cls-163,.cls-164,.cls-165,.cls-166,.cls-167,.cls-168,.cls-169,.cls-17,.cls-170,.cls-171,.cls-172,.cls-173,.cls-174,.cls-175,.cls-176,.cls-177,.cls-178,.cls-179,.cls-18,.cls-180,.cls-181,.cls-182,.cls-183,.cls-184,.cls-185,.cls-186,.cls-187,.cls-188,.cls-189,.cls-19,.cls-190,.cls-191,.cls-192,.cls-193,.cls-194,.cls-195,.cls-196,.cls-197,.cls-198,.cls-199,.cls-20,.cls-200,.cls-201,.cls-202,.cls-203,.cls-204,.cls-205,.cls-206,.cls-207,.cls-208,.cls-209,.cls-21,.cls-210,.cls-211,.cls-212,.cls-213,.cls-214,.cls-215,.cls-216,.cls-217,.cls-218,.cls-219,.cls-22,.cls-220,.cls-221,.cls-222,.cls-223,.cls-224,.cls-225,.cls-226,.cls-227,.cls-228,.cls-229,.cls-23,.cls-230,.cls-231,.cls-232,.cls-233,.cls-234,.cls-235,.cls-236,.cls-237,.cls-238,.cls-239,.cls-24,.cls-240,.cls-241,.cls-242,.cls-243,.cls-244,.cls-245,.cls-246,.cls-247,.cls-248,.cls-249,.cls-25,.cls-250,.cls-251,.cls-252,.cls-253,.cls-254,.cls-255,.cls-256,.cls-257,.cls-258,.cls-259,.cls-26,.cls-260,.cls-261,.cls-262,.cls-263,.cls-264,.cls-265,.cls-266,.cls-267,.cls-268,.cls-269,.cls-27,.cls-270,.cls-271,.cls-272,.cls-273,.cls-274,.cls-275,.cls-276,.cls-277,.cls-278,.cls-279,.cls-28,.cls-280,.cls-281,.cls-282,.cls-283,.cls-284,.cls-285,.cls-286,.cls-287,.cls-288,.cls-289,.cls-29,.cls-290,.cls-291,.cls-292,.cls-293,.cls-294,.cls-295,.cls-296,.cls-297,.cls-298,.cls-299,.cls-3,.cls-30,.cls-300,.cls-301,.cls-302,.cls-303,.cls-304,.cls-305,.cls-306,.cls-307,.cls-308,.cls-309,.cls-31,.cls-310,.cls-311,.cls-312,.cls-313,.cls-314,.cls-315,.cls-316,.cls-317,.cls-318,.cls-319,.cls-32,.cls-320,.cls-321,.cls-322,.cls-323,.cls-324,.cls-325,.cls-326,.cls-327,.cls-328,.cls-329,.cls-33,.cls-330,.cls-331,.cls-332,.cls-333,.cls-334,.cls-335,.cls-336,.cls-337,.cls-338,.cls-339,.cls-34,.cls-340,.cls-341,.cls-342,.cls-343,.cls-344,.cls-345,.cls-346,.cls-347,.cls-348,.cls-349,.cls-35,.cls-350,.cls-351,.cls-352,.cls-353,.cls-354,.cls-355,.cls-356,.cls-357,.cls-358,.cls-359,.cls-36,.cls-360,.cls-361,.cls-362,.cls-363,.cls-364,.cls-365,.cls-366,.cls-367,.cls-368,.cls-369,.cls-37,.cls-370,.cls-371,.cls-372,.cls-373,.cls-374,.cls-375,.cls-376,.cls-377,.cls-378,.cls-379,.cls-38,.cls-380,.cls-381,.cls-382,.cls-383,.cls-384,.cls-385,.cls-386,.cls-387,.cls-388,.cls-389,.cls-39,.cls-390,.cls-391,.cls-392,.cls-393,.cls-394,.cls-395,.cls-396,.cls-397,.cls-398,.cls-399,.cls-4,.cls-40,.cls-400,.cls-401,.cls-402,.cls-403,.cls-404,.cls-405,.cls-406,.cls-407,.cls-408,.cls-409,.cls-41,.cls-410,.cls-411,.cls-412,.cls-413,.cls-414,.cls-415,.cls-416,.cls-417,.cls-418,.cls-419,.cls-42,.cls-420,.cls-421,.cls-422,.cls-423,.cls-424,.cls-425,.cls-426,.cls-427,.cls-428,.cls-429,.cls-43,.cls-430,.cls-431,.cls-432,.cls-433,.cls-434,.cls-435,.cls-436,.cls-437,.cls-438,.cls-439,.cls-44,.cls-440,.cls-441,.cls-442,.cls-443,.cls-444,.cls-445,.cls-446,.cls-447,.cls-448,.cls-449,.cls-45,.cls-450,.cls-451,.cls-452,.cls-453,.cls-454,.cls-455,.cls-456,.cls-457,.cls-458,.cls-459,.cls-46,.cls-460,.cls-461,.cls-462,.cls-463,.cls-464,.cls-465,.cls-466,.cls-467,.cls-468,.cls-469,.cls-47,.cls-470,.cls-471,.cls-472,.cls-473,.cls-474,.cls-475,.cls-476,.cls-477,.cls-478,.cls-479,.cls-48,.cls-480,.cls-481,.cls-482,.cls-483,.cls-484,.cls-485,.cls-486,.cls-487,.cls-488,.cls-489,.cls-49,.cls-490,.cls-491,.cls-492,.cls-493,.cls-494,.cls-495,.cls-496,.cls-497,.cls-498,.cls-499,.cls-5,.cls-50,.cls-500,.cls-501,.cls-502,.cls-503,.cls-504,.cls-505,.cls-506,.cls-507,.cls-508,.cls-509,.cls-51,.cls-510,.cls-511,.cls-512,.cls-513,.cls-514,.cls-515,.cls-516,.cls-517,.cls-518,.cls-519,.cls-52,.cls-520,.cls-521,.cls-522,.cls-523,.cls-524,.cls-525,.cls-526,.cls-527,.cls-528,.cls-529,.cls-53,.cls-530,.cls-531,.cls-532,.cls-533,.cls-534,.cls-535,.cls-536,.cls-537,.cls-538,.cls-539,.cls-54,.cls-540,.cls-541,.cls-542,.cls-543,.cls-544,.cls-545,.cls-546,.cls-547,.cls-548,.cls-549,.cls-55,.cls-550,.cls-551,.cls-552,.cls-553,.cls-554,.cls-555,.cls-556,.cls-557,.cls-558,.cls-559,.cls-56,.cls-560,.cls-561,.cls-562,.cls-563,.cls-564,.cls-565,.cls-566,.cls-567,.cls-568,.cls-569,.cls-57,.cls-570,.cls-571,.cls-572,.cls-573,.cls-58,.cls-59,.cls-6,.cls-60,.cls-61,.cls-62,.cls-63,.cls-64,.cls-65,.cls-66,.cls-67,.cls-68,.cls-69,.cls-7,.cls-70,.cls-71,.cls-72,.cls-73,.cls-74,.cls-75,.cls-76,.cls-77,.cls-78,.cls-79,.cls-8,.cls-80,.cls-81,.cls-82,.cls-83,.cls-84,.cls-85,.cls-86,.cls-87,.cls-88,.cls-89,.cls-9,.cls-90,.cls-91,.cls-92,.cls-93,.cls-94,.cls-95,.cls-96,.cls-97,.cls-98,.cls-99{stroke:#000;stroke-width:0.01px;}.cls-4{fill:#cf4956;}.cls-5{fill:#b43144;}.cls-6{fill:#ca4556;}.cls-7{fill:#b22f3f;}.cls-8{fill:#b62b36;}.cls-9{fill:#bf3d49;}.cls-10{fill:#b4343e;}.cls-11{fill:#de5a5f;}.cls-12{fill:#de545f;}.cls-13{fill:#d34355;}.cls-14{fill:#b7353a;}.cls-15{fill:#e45d65;}.cls-16{fill:#c54548;}.cls-17{fill:#dd5459;}.cls-18{fill:#d54554;}.cls-19{fill:#ea616c;}.cls-20{fill:#d2464d;}.cls-21{fill:#ca3c41;}.cls-22{fill:#da4755;}.cls-23{fill:#d33e44;}.cls-24{fill:#f05967;}.cls-25{fill:#e35157;}.cls-26{fill:#d13c4c;}.cls-27{fill:#e44a56;}.cls-28{fill:#d2444c;}.cls-29{fill:#d94147;}.cls-30{fill:#e05157;}.cls-31{fill:#ef6068;}.cls-32{fill:#fe666b;}.cls-33{fill:#f55b64;}.cls-34{fill:#e64c54;}.cls-35{fill:#ff6d7d;}.cls-36{fill:#ec5154;}.cls-37{fill:#ed5763;}.cls-38{fill:#f66263;}.cls-39{fill:#fa5f6d;}.cls-40{fill:#f0505c;}.cls-41{fill:#ec595d;}.cls-42{fill:#fd6268;}.cls-43{fill:#e74f53;}.cls-44{fill:#ff6673;}.cls-45{fill:#ff7480;}.cls-46{fill:#f35a5c;}.cls-47{fill:#ff686f;}.cls-48{fill:#ff6e73;}.cls-49{fill:#ff737d;}.cls-50{fill:#f55964;}.cls-51{fill:#b73a3f;}.cls-52{fill:#ba3241;}.cls-53{fill:#a51e2c;}.cls-54{fill:#a7292e;}.cls-55{fill:#bf343d;}.cls-56{fill:#ce4f58;}.cls-57{fill:#b33235;}.cls-58{fill:#be3c41;}.cls-59{fill:#c13b41;}.cls-60{fill:#d64859;}.cls-61{fill:#c43b4b;}.cls-62{fill:#c84048;}.cls-63{fill:#cb3c48;}.cls-64{fill:#cc4243;}.cls-65{fill:#df555c;}.cls-66{fill:#e05963;}.cls-67{fill:#db4750;}.cls-68{fill:#d74a53;}.cls-69{fill:#ca4544;}.cls-70{fill:#c63a47;}.cls-71{fill:#e5545d;}.cls-72{fill:#ce3b44;}.cls-73{fill:#e55565;}.cls-74{fill:#f35f67;}.cls-75{fill:#d74550;}.cls-76{fill:#e65354;}.cls-77{fill:#e85558;}.cls-78{fill:#da4455;}.cls-79{fill:#ef5864;}.cls-80{fill:#ea5356;}.cls-81{fill:#db4c56;}.cls-82{fill:#e25155;}.cls-83{fill:#e24e51;}.cls-84{fill:#ff656a;}.cls-85{fill:#ff6f76;}.cls-86{fill:#fb636f;}.cls-87{fill:#ff646c;}.cls-88{fill:#ff7573;}.cls-89{fill:#ff757b;}.cls-90{fill:#ff7474;}.cls-91{fill:#f75c5f;}.cls-92{fill:#fd686d;}.cls-93{fill:#ff7078;}.cls-94{fill:#ff6a6c;}.cls-95{fill:#eb535e;}.cls-96{fill:#ff6c6f;}.cls-97{fill:#ff7581;}.cls-98{fill:#ff6f75;}.cls-99{fill:#a71f2d;}.cls-100{fill:#b43546;}.cls-101{fill:#a52630;}.cls-102{fill:#bc4449;}.cls-103{fill:#a5292e;}.cls-104{fill:#aa2336;}.cls-105{fill:#be3344;}.cls-106{fill:#b4323f;}.cls-107{fill:#b52c3c;}.cls-108{fill:#b62f37;}.cls-109{fill:#d34f5c;}.cls-110{fill:#c33447;}.cls-111{fill:#c83c41;}.cls-112{fill:#d44b54;}.cls-113{fill:#c33941;}.cls-114{fill:#bb3438;}.cls-115{fill:#da4f57;}.cls-116{fill:#eb5a66;}.cls-117{fill:#e45a61;}.cls-118{fill:#ca4446;}.cls-119{fill:#ee6365;}.cls-120{fill:#e15d64;}.cls-121{fill:#e0495a;}.cls-122{fill:#cf3d4b;}.cls-123{fill:#e34f59;}.cls-124{fill:#d2474a;}.cls-125{fill:#db434d;}.cls-126{fill:#ec5c62;}.cls-127{fill:#fa696f;}.cls-128{fill:#e04e5a;}.cls-129{fill:#d94c4e;}.cls-130{fill:#f3646e;}.cls-131{fill:#f05968;}.cls-132{fill:#fb656f;}.cls-133{fill:#de4b50;}.cls-134{fill:#e75360;}.cls-135{fill:#f7595b;}.cls-136{fill:#e34750;}.cls-137{fill:#ea4d57;}.cls-138{fill:#fc6068;}.cls-139{fill:#ec5a5b;}.cls-140{fill:#ff6f77;}.cls-141{fill:#f05c60;}.cls-142{fill:#fb5f6c;}.cls-143{fill:#ed585c;}.cls-144{fill:#f65c5c;}.cls-145{fill:#ff5d6a;}.cls-146{fill:#ff7676;}.cls-147{fill:#a7262a;}.cls-148{fill:#ab2732;}.cls-149{fill:#bf394c;}.cls-150{fill:#c14254;}.cls-151{fill:#b12d36;}.cls-152{fill:#cb454b;}.cls-153{fill:#b12639;}.cls-154{fill:#bd3941;}.cls-155{fill:#c23846;}.cls-156{fill:#d74d58;}.cls-157{fill:#c74a52;}.cls-158{fill:#cb4254;}.cls-159{fill:#d64d57;}.cls-160{fill:#ce4759;}.cls-161{fill:#c23943;}.cls-162{fill:#d04751;}.cls-163{fill:#bd3346;}.cls-164{fill:#b93439;}.cls-165{fill:#e15664;}.cls-166{fill:#dd5e62;}.cls-167{fill:#e24e55;}.cls-168{fill:#c03241;}.cls-169{fill:#e2565e;}.cls-170{fill:#e65d67;}.cls-171{fill:#d64149;}.cls-172{fill:#e4575d;}.cls-173{fill:#e7575b;}.cls-174{fill:#e44f5f;}.cls-175{fill:#fa606b;}.cls-176{fill:#ea5962;}.cls-177{fill:#e75b5e;}.cls-178{fill:#ee5e6d;}.cls-179{fill:#f16366;}.cls-180{fill:#e7595b;}.cls-181{fill:#fa626e;}.cls-182{fill:#ee5f62;}.cls-183{fill:#f75e65;}.cls-184{fill:#ff6c71;}.cls-185{fill:#ff6b75;}.cls-186{fill:#ff7274;}.cls-187{fill:#fb6664;}.cls-188{fill:#ff656e;}.cls-189{fill:#f05755;}.cls-190{fill:#ff6d79;}.cls-191{fill:#fe6069;}.cls-192{fill:#f25961;}.cls-193{fill:#ff5f63;}.cls-194{fill:#f76269;}.cls-195{fill:#b53340;}.cls-196{fill:#a52a37;}.cls-197{fill:#be404e;}.cls-198{fill:#ad3344;}.cls-199{fill:#cc414e;}.cls-200{fill:#d04e50;}.cls-201{fill:#b1333c;}.cls-202{fill:#b4313d;}.cls-203{fill:#b2333f;}.cls-204{fill:#b43441;}.cls-205{fill:#a92838;}.cls-206{fill:#c33f47;}.cls-207{fill:#c94555;}.cls-208{fill:#b73439;}.cls-209{fill:#d04956;}.cls-210{fill:#c84152;}.cls-211{fill:#bd3b42;}.cls-212{fill:#cf4659;}.cls-213{fill:#d44e4e;}.cls-214{fill:#bb363a;}.cls-215{fill:#e3525d;}.cls-216{fill:#e15456;}.cls-217{fill:#d54852;}.cls-218{fill:#d03b49;}.cls-219{fill:#d94c54;}.cls-220{fill:#dd4c56;}.cls-221{fill:#db515d;}.cls-222{fill:#ee5c6e;}.cls-223{fill:#df4858;}.cls-224{fill:#ef5567;}.cls-225{fill:#e75b60;}.cls-226{fill:#d94953;}.cls-227{fill:#df4652;}.cls-228{fill:#ea5b5f;}.cls-229{fill:#f7676f;}.cls-230{fill:#d74552;}.cls-231{fill:#e95354;}.cls-232{fill:#ff7479;}.cls-233{fill:#dd4e51;}.cls-234{fill:#fa5e67;}.cls-235{fill:#ee5663;}.cls-236{fill:#ec4b50;}.cls-237{fill:#fd5f69;}.cls-238{fill:#ff6b70;}.cls-239{fill:#ff6466;}.cls-240{fill:#ff676d;}.cls-241{fill:#ff7c81;}.cls-242{fill:#ff5e6a;}.cls-243{fill:#b63d48;}.cls-244{fill:#ba3b4b;}.cls-245{fill:#b12d37;}.cls-246{fill:#b43445;}.cls-247{fill:#a2282d;}.cls-248{fill:#bc3e47;}.cls-249{fill:#a22730;}.cls-250{fill:#b8373d;}.cls-251{fill:#be3e4a;}.cls-252{fill:#ab283a;}.cls-253{fill:#cf4b58;}.cls-254{fill:#ab2337;}.cls-255{fill:#af2e37;}.cls-256{fill:#b2303e;}.cls-257{fill:#d04958;}.cls-258{fill:#b52c37;}.cls-259{fill:#d64657;}.cls-260{fill:#d44652;}.cls-261{fill:#d34859;}.cls-262{fill:#cf4e52;}.cls-263{fill:#d5484f;}.cls-264{fill:#e95e60;}.cls-265{fill:#e25659;}.cls-266{fill:#be333f;}.cls-267{fill:#d6494f;}.cls-268{fill:#e4515d;}.cls-269{fill:#e85b63;}.cls-270{fill:#e55b61;}.cls-271{fill:#d24b53;}.cls-272{fill:#cd4245;}.cls-273{fill:#cc4248;}.cls-274{fill:#dd4d51;}.cls-275{fill:#e15150;}.cls-276{fill:#d8454c;}.cls-277{fill:#ea5559;}.cls-278{fill:#df5053;}.cls-279{fill:#eb595e;}.cls-280{fill:#f76370;}.cls-281{fill:#fa6b70;}.cls-282{fill:#ff7175;}.cls-283{fill:#ff6870;}.cls-284{fill:#ef575d;}.cls-285{fill:#e74e53;}.cls-286{fill:#ff787e;}.cls-287{fill:#ff6472;}.cls-288{fill:#ff737a;}.cls-289{fill:#ff747a;}.cls-290{fill:#9b232e;}.cls-291{fill:#bf3f53;}.cls-292{fill:#b0363d;}.cls-293{fill:#9f273a;}.cls-294{fill:#bd3b46;}.cls-295{fill:#c2474f;}.cls-296{fill:#af2a36;}.cls-297{fill:#a52f3b;}.cls-298{fill:#b3303b;}.cls-299{fill:#b43841;}.cls-300{fill:#b52c3f;}.cls-301{fill:#cf4b54;}.cls-302{fill:#ac2433;}.cls-303{fill:#c33a47;}.cls-304{fill:#b42f41;}.cls-305{fill:#ad2f37;}.cls-306{fill:#d95259;}.cls-307{fill:#c23b41;}.cls-308{fill:#c73646;}.cls-309{fill:#d85061;}.cls-310{fill:#d44c56;}.cls-311{fill:#d24c55;}.cls-312{fill:#d2494c;}.cls-313{fill:#c23849;}.cls-314{fill:#d75358;}.cls-315{fill:#dc5155;}.cls-316{fill:#e65463;}.cls-317{fill:#cf3f45;}.cls-318{fill:#e0515e;}.cls-319{fill:#d23d4a;}.cls-320{fill:#cb414a;}.cls-321{fill:#e66060;}.cls-322{fill:#ef5d68;}.cls-323{fill:#dd4752;}.cls-324{fill:#ea505d;}.cls-325{fill:#f36a6e;}.cls-326{fill:#dc414b;}.cls-327{fill:#fd6a75;}.cls-328{fill:#dc4254;}.cls-329{fill:#f95b65;}.cls-330{fill:#eb5c5d;}.cls-331{fill:#ea4f5c;}.cls-332{fill:#fb616f;}.cls-333{fill:#de4d53;}.cls-334{fill:#ff707d;}.cls-335{fill:#f0525f;}.cls-336{fill:#fc6564;}.cls-337{fill:#e74f52;}.cls-338{fill:#9f2c38;}.cls-339{fill:#b03441;}.cls-340{fill:#9c2433;}.cls-341{fill:#aa333c;}.cls-342{fill:#be3f4e;}.cls-343{fill:#af3546;}.cls-344{fill:#a12629;}.cls-345{fill:#b8353c;}.cls-346{fill:#bf3c45;}.cls-347{fill:#ac2f3a;}.cls-348{fill:#a82735;}.cls-349{fill:#ac2f38;}.cls-350{fill:#bb384a;}.cls-351{fill:#bd424c;}.cls-352{fill:#b33038;}.cls-353{fill:#c14451;}.cls-354{fill:#bd3544;}.cls-355{fill:#c63d44;}.cls-356{fill:#c63c47;}.cls-357{fill:#c24051;}.cls-358{fill:#c64245;}.cls-359{fill:#d9565c;}.cls-360{fill:#d44c5c;}.cls-361{fill:#bc323d;}.cls-362{fill:#d34554;}.cls-363{fill:#e25669;}.cls-364{fill:#be3f40;}.cls-365{fill:#c73e45;}.cls-366{fill:#df565c;}.cls-367{fill:#da545e;}.cls-368{fill:#e4525b;}.cls-369{fill:#eb5b60;}.cls-370{fill:#ef6464;}.cls-371{fill:#f15664;}.cls-372{fill:#d0464f;}.cls-373{fill:#d13f4f;}.cls-374{fill:#dd4758;}.cls-375{fill:#ea5b66;}.cls-376{fill:#f7606b;}.cls-377{fill:#d8454d;}.cls-378{fill:#fa6868;}.cls-379{fill:#da4655;}.cls-380{fill:#f15c66;}.cls-381{fill:#f45b62;}.cls-382{fill:#f1585d;}.cls-383{fill:#e74d57;}.cls-384{fill:#f95964;}.cls-385{fill:#f9626a;}.cls-386{fill:#bd3c51;}.cls-387{fill:#ad383d;}.cls-388{fill:#aa2d38;}.cls-389{fill:#99262f;}.cls-390{fill:#b03640;}.cls-391{fill:#b73f4f;}.cls-392{fill:#a42a3c;}.cls-393{fill:#a62d3d;}.cls-394{fill:#b0363f;}.cls-395{fill:#b13c40;}.cls-396{fill:#b33844;}.cls-397{fill:#a42c36;}.cls-398{fill:#ba2f45;}.cls-399{fill:#a82336;}.cls-400{fill:#c23f53;}.cls-401{fill:#c73d50;}.cls-402{fill:#bd3d41;}.cls-403{fill:#b1242e;}.cls-404{fill:#ac283a;}.cls-405{fill:#c94051;}.cls-406{fill:#c54450;}.cls-407{fill:#cf4255;}.cls-408{fill:#c43c52;}.cls-409{fill:#c0354a;}.cls-410{fill:#d44e5c;}.cls-411{fill:#da5555;}.cls-412{fill:#bb2c3f;}.cls-413{fill:#ce4951;}.cls-414{fill:#c23c3c;}.cls-415{fill:#d24f56;}.cls-416{fill:#d7515c;}.cls-417{fill:#d4444e;}.cls-418{fill:#e14b53;}.cls-419{fill:#ed5b6c;}.cls-420{fill:#dd4554;}.cls-421{fill:#e75d61;}.cls-422{fill:#f8676d;}.cls-423{fill:#f16569;}.cls-424{fill:#da464d;}.cls-425{fill:#ee5d65;}.cls-426{fill:#ea5961;}.cls-427{fill:#e9555b;}.cls-428{fill:#fb6f74;}.cls-429{fill:#ea585e;}.cls-430{fill:#e64f58;}.cls-431{fill:#fa6169;}.cls-432{fill:#f35b69;}.cls-433{fill:#bf4650;}.cls-434{fill:#9c2336;}.cls-435{fill:#941c23;}.cls-436{fill:#a22831;}.cls-437{fill:#b53c4b;}.cls-438{fill:#b12f3d;}.cls-439{fill:#992033;}.cls-440{fill:#b03741;}.cls-441{fill:#be4149;}.cls-442{fill:#ab3239;}.cls-443{fill:#a7323a;}.cls-444{fill:#b83943;}.cls-445{fill:#c53f4e;}.cls-446{fill:#9f1f2d;}.cls-447{fill:#be3e48;}.cls-448{fill:#a42734;}.cls-449{fill:#ad2131;}.cls-450{fill:#ab2636;}.cls-451{fill:#b72f3f;}.cls-452{fill:#b72f3c;}.cls-453{fill:#d64c59;}.cls-454{fill:#d14b54;}.cls-455{fill:#b82e3a;}.cls-456{fill:#d34b4f;}.cls-457{fill:#b93040;}.cls-458{fill:#c84046;}.cls-459{fill:#c74751;}.cls-460{fill:#c23439;}.cls-461{fill:#bf3143;}.cls-462{fill:#c83745;}.cls-463{fill:#d04950;}.cls-464{fill:#dd485a;}.cls-465{fill:#d54d56;}.cls-466{fill:#e95a65;}.cls-467{fill:#ea5b6b;}.cls-468{fill:#cf404d;}.cls-469{fill:#e75160;}.cls-470{fill:#f55f6c;}.cls-471{fill:#d64248;}.cls-472{fill:#f7636c;}.cls-473{fill:#e24954;}.cls-474{fill:#f9686b;}.cls-475{fill:#f2656d;}.cls-476{fill:#f46065;}.cls-477{fill:#f45e65;}.cls-478{fill:#ff7278;}.cls-479{fill:#de4550;}.cls-480{fill:#a82c40;}.cls-481{fill:#a52833;}.cls-482{fill:#972428;}.cls-483{fill:#911b25;}.cls-484{fill:#a9343c;}.cls-485{fill:#bb3a45;}.cls-486{fill:#a82f38;}.cls-487{fill:#ab3040;}.cls-488{fill:#b03042;}.cls-489{fill:#be404a;}.cls-490{fill:#b53a49;}.cls-491{fill:#b22c41;}.cls-492{fill:#bb424d;}.cls-493{fill:#b53443;}.cls-494{fill:#a62533;}.cls-495{fill:#ac2c36;}.cls-496{fill:#ac202d;}.cls-497{fill:#bf434a;}.cls-498{fill:#b93c43;}.cls-499{fill:#c03445;}.cls-500{fill:#c03b45;}.cls-501{fill:#c03e48;}.cls-502{fill:#bd3546;}.cls-503{fill:#d55558;}.cls-504{fill:#dc4f62;}.cls-505{fill:#bc3947;}.cls-506{fill:#dc545f;}.cls-507{fill:#d1454f;}.cls-508{fill:#e15565;}.cls-509{fill:#bd373c;}.cls-510{fill:#e45c5e;}.cls-511{fill:#c3363d;}.cls-512{fill:#da4f5a;}.cls-513{fill:#c0373e;}.cls-514{fill:#d54c5b;}.cls-515{fill:#e95e64;}.cls-516{fill:#ec5a66;}.cls-517{fill:#cc4345;}.cls-518{fill:#eb5863;}.cls-519{fill:#e85f66;}.cls-520{fill:#e8595b;}.cls-521{fill:#dc4851;}.cls-522{fill:#e9586a;}.cls-523{fill:#f35761;}.cls-524{fill:#fe6878;}.cls-525{fill:#ed5960;}.cls-526{fill:#e54a50;}.cls-527{fill:#ab2d3f;}.cls-528{fill:#bc3b49;}.cls-529{fill:#b53d47;}.cls-530{fill:#9b1e33;}.cls-531{fill:#b83b47;}.cls-532{fill:#ab2c3f;}.cls-533{fill:#9e242f;}.cls-534{fill:#b53843;}.cls-535{fill:#c03f51;}.cls-536{fill:#af3948;}.cls-537{fill:#b73744;}.cls-538{fill:#931d2a;}.cls-539{fill:#9e2a2d;}.cls-540{fill:#ad2f3a;}.cls-541{fill:#a42432;}.cls-542{fill:#be3f4d;}.cls-543{fill:#ba3944;}.cls-544{fill:#c4474f;}.cls-545{fill:#c44c52;}.cls-546{fill:#a42e35;}.cls-547{fill:#a92933;}.cls-548{fill:#c9434c;}.cls-549{fill:#c4404c;}.cls-550{fill:#ac2b38;}.cls-551{fill:#d24752;}.cls-552{fill:#b9353f;}.cls-553{fill:#c9434b;}.cls-554{fill:#d44751;}.cls-555{fill:#c13b48;}.cls-556{fill:#c9414d;}.cls-557{fill:#d34555;}.cls-558{fill:#b22b32;}.cls-559{fill:#c33446;}.cls-560{fill:#c73849;}.cls-561{fill:#db4d5d;}.cls-562{fill:#dd575e;}.cls-563{fill:#cb3b45;}.cls-564{fill:#d84a53;}.cls-565{fill:#e76164;}.cls-566{fill:#c84247;}.cls-567{fill:#f86a71;}.cls-568{fill:#e44e55;}.cls-569{fill:#d34248;}.cls-570{fill:#d74750;}.cls-571{fill:#d6404d;}.cls-572{fill:#ff6471;}.cls-573{fill:#ec5e68;}</style><clipPath id="clip-path" transform="translate(0.02 0.02)"><rect class="cls-1" width="1000" height="1000"/></clipPath></defs><title>triangles</title><rect class="cls-1" x="0.02" y="0.02" width="1000" height="1000"/><g class="cls-2"><g id="all"><path class="cls-3" d="M0,0H83.33L41.67,41.67Z" transform="translate(0.02 0.02)"/><path class="cls-4" d="M83.33,0,99.17,75.83,41.67,41.67Z" transform="translate(0.02 0.02)"/><path class="cls-5" d="M99.17,75.83,0,83.33,41.67,41.67Z" transform="translate(0.02 0.02)"/><path class="cls-6" d="M0,83.33V0L41.67,41.67Z" transform="translate(0.02 0.02)"/><path class="cls-7" d="M83.33,0h83.34L125,41.67Z" transform="translate(0.02 0.02)"/><path class="cls-8" d="M166.67,0,185,90,125,41.67Z" transform="translate(0.02 0.02)"/><path class="cls-9" d="M185,90,99.17,75.83,125,41.67Z" transform="translate(0.02 0.02)"/><path class="cls-10" d="M99.17,75.83,83.33,0,125,41.67Z" transform="translate(0.02 0.02)"/><path class="cls-11" d="M166.67,0H250L208.33,41.67Z" transform="translate(0.02 0.02)"/><path class="cls-12" d="M250,0l29.17,61.67-70.84-20Z" transform="translate(0.02 0.02)"/><path class="cls-13" d="M279.17,61.67,185,90l23.33-48.33Z" transform="translate(0.02 0.02)"/><path class="cls-14" d="M185,90,166.67,0l41.66,41.67Z" transform="translate(0.02 0.02)"/><path class="cls-15" d="M250,0h83.33L291.67,41.67Z" transform="translate(0.02 0.02)"/><path class="cls-16" d="M333.33,0l23.34,90.83-65-49.16Z" transform="translate(0.02 0.02)"/><path class="cls-17" d="M356.67,90.83l-77.5-29.16,12.5-20Z" transform="translate(0.02 0.02)"/><path class="cls-18" d="M279.17,61.67,250,0l41.67,41.67Z" transform="translate(0.02 0.02)"/><path class="cls-19" d="M333.33,0h83.34L375,41.67Z" transform="translate(0.02 0.02)"/><path class="cls-20" d="M416.67,0l6.66,72.5L375,41.67Z" transform="translate(0.02 0.02)"/><path class="cls-21" d="M423.33,72.5,356.67,90.83,375,41.67Z" transform="translate(0.02 0.02)"/><path class="cls-22" d="M356.67,90.83,333.33,0,375,41.67Z" transform="translate(0.02 0.02)"/><path class="cls-23" d="M416.67,0H500L458.33,41.67Z" transform="translate(0.02 0.02)"/><path class="cls-24" d="M500,0l14.17,109.17-55.84-67.5Z" transform="translate(0.02 0.02)"/><path class="cls-25" d="M514.17,109.17,423.33,72.5l35-30.83Z" transform="translate(0.02 0.02)"/><path class="cls-26" d="M423.33,72.5,416.67,0l41.66,41.67Z" transform="translate(0.02 0.02)"/><path class="cls-27" d="M500,0h83.33L541.67,41.67Z" transform="translate(0.02 0.02)"/><path class="cls-28" d="M583.33,0l-7.5,94.17-34.16-52.5Z" transform="translate(0.02 0.02)"/><path class="cls-29" d="M575.83,94.17l-61.66,15,27.5-67.5Z" transform="translate(0.02 0.02)"/><path class="cls-30" d="M514.17,109.17,500,0l41.67,41.67Z" transform="translate(0.02 0.02)"/><path class="cls-31" d="M583.33,0h83.34L625,41.67Z" transform="translate(0.02 0.02)"/><path class="cls-32" d="M666.67,0l-22.5,71.67L625,41.67Z" transform="translate(0.02 0.02)"/><path class="cls-33" d="M644.17,71.67l-68.34,22.5L625,41.67Z" transform="translate(0.02 0.02)"/><path class="cls-34" d="M575.83,94.17,583.33,0,625,41.67Z" transform="translate(0.02 0.02)"/><path class="cls-35" d="M666.67,0H750L708.33,41.67Z" transform="translate(0.02 0.02)"/><path class="cls-36" d="M750,0,723.33,112.5l-15-70.83Z" transform="translate(0.02 0.02)"/><path class="cls-37" d="M723.33,112.5,644.17,71.67l64.16-30Z" transform="translate(0.02 0.02)"/><path class="cls-38" d="M644.17,71.67,666.67,0l41.66,41.67Z" transform="translate(0.02 0.02)"/><path class="cls-39" d="M750,0h83.33L791.67,41.67Z" transform="translate(0.02 0.02)"/><path class="cls-40" d="M833.33,0l15.84,81.67-57.5-40Z" transform="translate(0.02 0.02)"/><path class="cls-41" d="M849.17,81.67,723.33,112.5l68.34-70.83Z" transform="translate(0.02 0.02)"/><path class="cls-42" d="M723.33,112.5,750,0l41.67,41.67Z" transform="translate(0.02 0.02)"/><path class="cls-43" d="M833.33,0h83.34L875,41.67Z" transform="translate(0.02 0.02)"/><path class="cls-44" d="M916.67,0l-8.34,110.83L875,41.67Z" transform="translate(0.02 0.02)"/><path class="cls-45" d="M908.33,110.83,849.17,81.67l25.83-40Z" transform="translate(0.02 0.02)"/><path class="cls-46" d="M849.17,81.67,833.33,0,875,41.67Z" transform="translate(0.02 0.02)"/><path class="cls-47" d="M916.67,0H1000L958.33,41.67Z" transform="translate(0.02 0.02)"/><path class="cls-48" d="M1000,0V83.33L958.33,41.67Z" transform="translate(0.02 0.02)"/><path class="cls-49" d="M1000,83.33l-91.67,27.5,50-69.16Z" transform="translate(0.02 0.02)"/><path class="cls-50" d="M908.33,110.83,916.67,0l41.66,41.67Z" transform="translate(0.02 0.02)"/><path class="cls-51" d="M0,83.33l99.17-7.5L41.67,125Z" transform="translate(0.02 0.02)"/><path class="cls-52" d="M99.17,75.83l-20,73.34L41.67,125Z" transform="translate(0.02 0.02)"/><path class="cls-53" d="M79.17,149.17,0,166.67,41.67,125Z" transform="translate(0.02 0.02)"/><path class="cls-54" d="M0,166.67V83.33L41.67,125Z" transform="translate(0.02 0.02)"/><path class="cls-55" d="M99.17,75.83,185,90l-54.38,29Z" transform="translate(0.02 0.02)"/><path class="cls-56" d="M185,90l-43.33,70-11-41Z" transform="translate(0.02 0.02)"/><path class="cls-57" d="M141.67,160l-62.5-10.83L130.62,119Z" transform="translate(0.02 0.02)"/><path class="cls-58" d="M79.17,149.17l20-73.34L130.62,119Z" transform="translate(0.02 0.02)"/><path class="cls-59" d="M185,90l94.17-28.33L222.08,115Z" transform="translate(0.02 0.02)"/><path class="cls-60" d="M279.17,61.67l-6.67,89.16L222.08,115Z" transform="translate(0.02 0.02)"/><path class="cls-61" d="M272.5,150.83,141.67,160l80.41-45Z" transform="translate(0.02 0.02)"/><path class="cls-62" d="M141.67,160,185,90l37.08,25Z" transform="translate(0.02 0.02)"/><path class="cls-63" d="M279.17,61.67l77.5,29.16-51.05,37.92Z" transform="translate(0.02 0.02)"/><path class="cls-64" d="M356.67,90.83l2.5,103.34-53.55-65.42Z" transform="translate(0.02 0.02)"/><path class="cls-65" d="M359.17,194.17,272.5,150.83l33.12-22.08Z" transform="translate(0.02 0.02)"/><path class="cls-66" d="M272.5,150.83l6.67-89.16,26.45,67.08Z" transform="translate(0.02 0.02)"/><path class="cls-67" d="M356.67,90.83,423.33,72.5l-35,50.21Z" transform="translate(0.02 0.02)"/><path class="cls-68" d="M423.33,72.5l13.34,83.33-48.34-33.12Z" transform="translate(0.02 0.02)"/><path class="cls-69" d="M436.67,155.83l-77.5,38.34,29.16-71.46Z" transform="translate(0.02 0.02)"/><path class="cls-70" d="M359.17,194.17l-2.5-103.34,31.66,31.88Z" transform="translate(0.02 0.02)"/><path class="cls-71" d="M423.33,72.5l90.84,36.67L465,109Z" transform="translate(0.02 0.02)"/><path class="cls-72" d="M514.17,109.17l-2.5,56.66L465,109Z" transform="translate(0.02 0.02)"/><path class="cls-73" d="M511.67,165.83l-75-10L465,109Z" transform="translate(0.02 0.02)"/><path class="cls-74" d="M436.67,155.83,423.33,72.5,465,109Z" transform="translate(0.02 0.02)"/><path class="cls-75" d="M514.17,109.17l61.66-15L559.38,134Z" transform="translate(0.02 0.02)"/><path class="cls-76" d="M575.83,94.17l-17.5,55,1-15.21Z" transform="translate(0.02 0.02)"/><path class="cls-77" d="M558.33,149.17l-46.66,16.66L559.38,134Z" transform="translate(0.02 0.02)"/><path class="cls-78" d="M511.67,165.83l2.5-56.66L559.38,134Z" transform="translate(0.02 0.02)"/><path class="cls-79" d="M575.83,94.17l68.34-22.5-34.38,55.21Z" transform="translate(0.02 0.02)"/><path class="cls-80" d="M644.17,71.67l-.84,105.83-33.54-50.62Z" transform="translate(0.02 0.02)"/><path class="cls-81" d="M643.33,177.5l-85-28.33,51.46-22.29Z" transform="translate(0.02 0.02)"/><path class="cls-82" d="M558.33,149.17l17.5-55,34,32.71Z" transform="translate(0.02 0.02)"/><path class="cls-83" d="M644.17,71.67l79.16,40.83L721,120.42Z" transform="translate(0.02 0.02)"/><path class="cls-84" d="M723.33,112.5l17.5,63.33L721,120.42Z" transform="translate(0.02 0.02)"/><path class="cls-85" d="M740.83,175.83l-97.5,1.67L721,120.42Z" transform="translate(0.02 0.02)"/><path class="cls-86" d="M643.33,177.5l.84-105.83L721,120.42Z" transform="translate(0.02 0.02)"/><path class="cls-87" d="M723.33,112.5,849.17,81.67,766.67,129Z" transform="translate(0.02 0.02)"/><path class="cls-88" d="M849.17,81.67l8.33,74.16L766.67,129Z" transform="translate(0.02 0.02)"/><path class="cls-89" d="M857.5,155.83l-116.67,20L766.67,129Z" transform="translate(0.02 0.02)"/><path class="cls-90" d="M740.83,175.83l-17.5-63.33L766.67,129Z" transform="translate(0.02 0.02)"/><path class="cls-91" d="M849.17,81.67l59.16,29.16-17.71,27.92Z" transform="translate(0.02 0.02)"/><path class="cls-92" d="M908.33,110.83l1.67,50-19.38-22.08Z" transform="translate(0.02 0.02)"/><path class="cls-93" d="M910,160.83l-52.5-5,33.12-17.08Z" transform="translate(0.02 0.02)"/><path class="cls-94" d="M857.5,155.83l-8.33-74.16,41.45,57.08Z" transform="translate(0.02 0.02)"/><path class="cls-95" d="M908.33,110.83,1000,83.33,937.08,141Z" transform="translate(0.02 0.02)"/><path class="cls-96" d="M1000,83.33v83.34L937.08,141Z" transform="translate(0.02 0.02)"/><path class="cls-97" d="M1000,166.67l-90-5.84L937.08,141Z" transform="translate(0.02 0.02)"/><path class="cls-98" d="M910,160.83l-1.67-50L937.08,141Z" transform="translate(0.02 0.02)"/><path class="cls-99" d="M0,166.67l79.17-17.5-37.5,59.16Z" transform="translate(0.02 0.02)"/><path class="cls-100" d="M79.17,149.17,105,227.5,41.67,208.33Z" transform="translate(0.02 0.02)"/><path class="cls-101" d="M105,227.5,0,250l41.67-41.67Z" transform="translate(0.02 0.02)"/><path class="cls-102" d="M0,250V166.67l41.67,41.66Z" transform="translate(0.02 0.02)"/><path class="cls-103" d="M79.17,149.17,141.67,160l-34.38,44Z" transform="translate(0.02 0.02)"/><path class="cls-104" d="M141.67,160l51.66,72.5-86-28.54Z" transform="translate(0.02 0.02)"/><path class="cls-105" d="M193.33,232.5l-88.33-5L107.29,204Z" transform="translate(0.02 0.02)"/><path class="cls-106" d="M105,227.5,79.17,149.17,107.29,204Z" transform="translate(0.02 0.02)"/><path class="cls-107" d="M141.67,160l130.83-9.17-57.08,40.84Z" transform="translate(0.02 0.02)"/><path class="cls-108" d="M272.5,150.83l-9.17,120.84-47.91-80Z" transform="translate(0.02 0.02)"/><path class="cls-109" d="M263.33,271.67l-70-39.17,22.09-40.83Z" transform="translate(0.02 0.02)"/><path class="cls-110" d="M193.33,232.5,141.67,160l73.75,31.67Z" transform="translate(0.02 0.02)"/><path class="cls-111" d="M272.5,150.83l86.67,43.34-58.55-5.63Z" transform="translate(0.02 0.02)"/><path class="cls-112" d="M359.17,194.17,350,268.33l-49.38-79.79Z" transform="translate(0.02 0.02)"/><path class="cls-113" d="M350,268.33l-86.67,3.34,37.29-83.13Z" transform="translate(0.02 0.02)"/><path class="cls-114" d="M263.33,271.67l9.17-120.84,28.12,37.71Z" transform="translate(0.02 0.02)"/><path class="cls-115" d="M359.17,194.17l77.5-38.34-66.88,56Z" transform="translate(0.02 0.02)"/><path class="cls-116" d="M436.67,155.83,400,236.67l-30.21-24.79Z" transform="translate(0.02 0.02)"/><path class="cls-117" d="M400,236.67l-50,31.66,19.79-56.45Z" transform="translate(0.02 0.02)"/><path class="cls-118" d="M350,268.33l9.17-74.16,10.62,17.71Z" transform="translate(0.02 0.02)"/><path class="cls-119" d="M436.67,155.83l75,10L445,205.62Z" transform="translate(0.02 0.02)"/><path class="cls-120" d="M511.67,165.83l-3.34,112.5L445,205.62Z" transform="translate(0.02 0.02)"/><path class="cls-121" d="M508.33,278.33,400,236.67l45-31Z" transform="translate(0.02 0.02)"/><path class="cls-122" d="M400,236.67l36.67-80.84L445,205.62Z" transform="translate(0.02 0.02)"/><path class="cls-123" d="M511.67,165.83l46.66-16.66,4.59,51.45Z" transform="translate(0.02 0.02)"/><path class="cls-124" d="M558.33,149.17l2.5,79.16,2.09-27.71Z" transform="translate(0.02 0.02)"/><path class="cls-125" d="M560.83,228.33l-52.5,50,54.59-77.71Z" transform="translate(0.02 0.02)"/><path class="cls-126" d="M508.33,278.33l3.34-112.5,51.25,34.79Z" transform="translate(0.02 0.02)"/><path class="cls-127" d="M558.33,149.17l85,28.33-35.41,20.62Z" transform="translate(0.02 0.02)"/><path class="cls-128" d="M643.33,177.5l10,69.17-45.41-48.55Z" transform="translate(0.02 0.02)"/><path class="cls-129" d="M653.33,246.67l-92.5-18.34,47.09-30.21Z" transform="translate(0.02 0.02)"/><path class="cls-130" d="M560.83,228.33l-2.5-79.16,49.59,49Z" transform="translate(0.02 0.02)"/><path class="cls-131" d="M643.33,177.5l97.5-1.67-27.5,38.55Z" transform="translate(0.02 0.02)"/><path class="cls-132" d="M740.83,175.83l-10,54.17-17.5-15.62Z" transform="translate(0.02 0.02)"/><path class="cls-133" d="M730.83,230l-77.5,16.67,60-32.29Z" transform="translate(0.02 0.02)"/><path class="cls-134" d="M653.33,246.67l-10-69.17,70,36.88Z" transform="translate(0.02 0.02)"/><path class="cls-135" d="M740.83,175.83l116.67-20L804.38,209Z" transform="translate(0.02 0.02)"/><path class="cls-136" d="M857.5,155.83,829.17,277.5,804.38,209Z" transform="translate(0.02 0.02)"/><path class="cls-137" d="M829.17,277.5,730.83,230l73.55-21Z" transform="translate(0.02 0.02)"/><path class="cls-138" d="M730.83,230l10-54.17L804.38,209Z" transform="translate(0.02 0.02)"/><path class="cls-139" d="M857.5,155.83l52.5,5-33.12,64Z" transform="translate(0.02 0.02)"/><path class="cls-140" d="M910,160.83l-15.83,65.84-17.29-1.88Z" transform="translate(0.02 0.02)"/><path class="cls-141" d="M894.17,226.67l-65,50.83,47.71-52.71Z" transform="translate(0.02 0.02)"/><path class="cls-142" d="M829.17,277.5,857.5,155.83l19.38,69Z" transform="translate(0.02 0.02)"/><path class="cls-143" d="M910,160.83l90,5.84-34.17,42.71Z" transform="translate(0.02 0.02)"/><path class="cls-144" d="M1000,166.67V250l-34.17-40.62Z" transform="translate(0.02 0.02)"/><path class="cls-145" d="M1000,250,894.17,226.67l71.66-17.29Z" transform="translate(0.02 0.02)"/><path class="cls-146" d="M894.17,226.67,910,160.83l55.83,48.55Z" transform="translate(0.02 0.02)"/><path class="cls-147" d="M0,250l105-22.5L41.67,291.67Z" transform="translate(0.02 0.02)"/><path class="cls-148" d="M105,227.5l-.83,94.17-62.5-30Z" transform="translate(0.02 0.02)"/><path class="cls-149" d="M104.17,321.67,0,333.33l41.67-41.66Z" transform="translate(0.02 0.02)"/><path class="cls-150" d="M0,333.33V250l41.67,41.67Z" transform="translate(0.02 0.02)"/><path class="cls-151" d="M105,227.5l88.33,5-57.08,41.88Z" transform="translate(0.02 0.02)"/><path class="cls-152" d="M193.33,232.5,180,348.33l-43.75-73.95Z" transform="translate(0.02 0.02)"/><path class="cls-153" d="M180,348.33l-75.83-26.66,32.08-47.29Z" transform="translate(0.02 0.02)"/><path class="cls-154" d="M104.17,321.67,105,227.5l31.25,46.88Z" transform="translate(0.02 0.02)"/><path class="cls-155" d="M193.33,232.5l70,39.17-47.5,11.45Z" transform="translate(0.02 0.02)"/><path class="cls-156" d="M263.33,271.67l-25,42.5-22.5-31.05Z" transform="translate(0.02 0.02)"/><path class="cls-157" d="M238.33,314.17,180,348.33l35.83-65.21Z" transform="translate(0.02 0.02)"/><path class="cls-158" d="M180,348.33,193.33,232.5l22.5,50.62Z" transform="translate(0.02 0.02)"/><path class="cls-159" d="M263.33,271.67,350,268.33l-66.67,12.09Z" transform="translate(0.02 0.02)"/><path class="cls-160" d="M350,268.33l-4.17,83.34-62.5-71.25Z" transform="translate(0.02 0.02)"/><path class="cls-161" d="M345.83,351.67l-107.5-37.5,45-33.75Z" transform="translate(0.02 0.02)"/><path class="cls-162" d="M238.33,314.17l25-42.5,20,8.75Z" transform="translate(0.02 0.02)"/><path class="cls-163" d="M350,268.33l50-31.66-39.17,69.58Z" transform="translate(0.02 0.02)"/><path class="cls-164" d="M400,236.67l18.33,89.16-57.5-19.58Z" transform="translate(0.02 0.02)"/><path class="cls-165" d="M418.33,325.83l-72.5,25.84,15-45.42Z" transform="translate(0.02 0.02)"/><path class="cls-166" d="M345.83,351.67,350,268.33l10.83,37.92Z" transform="translate(0.02 0.02)"/><path class="cls-167" d="M400,236.67l108.33,41.66-39.16,2.5Z" transform="translate(0.02 0.02)"/><path class="cls-168" d="M508.33,278.33l12.5,29.17-51.66-26.67Z" transform="translate(0.02 0.02)"/><path class="cls-169" d="M520.83,307.5l-102.5,18.33,50.84-45Z" transform="translate(0.02 0.02)"/><path class="cls-170" d="M418.33,325.83,400,236.67l69.17,44.16Z" transform="translate(0.02 0.02)"/><path class="cls-171" d="M508.33,278.33l52.5-50-36.25,62.92Z" transform="translate(0.02 0.02)"/><path class="cls-172" d="M560.83,228.33,570,340l-45.42-48.75Z" transform="translate(0.02 0.02)"/><path class="cls-173" d="M570,340l-49.17-32.5,3.75-16.25Z" transform="translate(0.02 0.02)"/><path class="cls-174" d="M520.83,307.5l-12.5-29.17,16.25,12.92Z" transform="translate(0.02 0.02)"/><path class="cls-175" d="M560.83,228.33l92.5,18.34-39.79,47.08Z" transform="translate(0.02 0.02)"/><path class="cls-176" d="M653.33,246.67,690,317.5l-76.46-23.75Z" transform="translate(0.02 0.02)"/><path class="cls-177" d="M690,317.5,570,340l43.54-46.25Z" transform="translate(0.02 0.02)"/><path class="cls-178" d="M570,340l-9.17-111.67,52.71,65.42Z" transform="translate(0.02 0.02)"/><path class="cls-179" d="M653.33,246.67,730.83,230l-37.5,76.67Z" transform="translate(0.02 0.02)"/><path class="cls-180" d="M730.83,230l7.5,112.5-45-35.83Z" transform="translate(0.02 0.02)"/><path class="cls-181" d="M738.33,342.5,690,317.5l3.33-10.83Z" transform="translate(0.02 0.02)"/><path class="cls-182" d="M690,317.5l-36.67-70.83,40,60Z" transform="translate(0.02 0.02)"/><path class="cls-183" d="M730.83,230l98.34,47.5-44.79,25.83Z" transform="translate(0.02 0.02)"/><path class="cls-184" d="M829.17,277.5l9.16,31.67-54-5.84Z" transform="translate(0.02 0.02)"/><path class="cls-185" d="M838.33,309.17l-100,33.33,46-39.17Z" transform="translate(0.02 0.02)"/><path class="cls-186" d="M738.33,342.5,730.83,230l53.55,73.33Z" transform="translate(0.02 0.02)"/><path class="cls-187" d="M829.17,277.5l65-50.83L869,286Z" transform="translate(0.02 0.02)"/><path class="cls-188" d="M894.17,226.67l13.33,92.5L869,286Z" transform="translate(0.02 0.02)"/><path class="cls-189" d="M907.5,319.17l-69.17-10L869,286Z" transform="translate(0.02 0.02)"/><path class="cls-190" d="M838.33,309.17l-9.16-31.67L869,286Z" transform="translate(0.02 0.02)"/><path class="cls-191" d="M894.17,226.67,1000,250l-32.29,45.83Z" transform="translate(0.02 0.02)"/><path class="cls-192" d="M1000,250v83.33l-32.29-37.5Z" transform="translate(0.02 0.02)"/><path class="cls-193" d="M1000,333.33l-92.5-14.16,60.21-23.34Z" transform="translate(0.02 0.02)"/><path class="cls-194" d="M907.5,319.17l-13.33-92.5,73.54,69.16Z" transform="translate(0.02 0.02)"/><path class="cls-195" d="M0,333.33l104.17-11.66L41.67,375Z" transform="translate(0.02 0.02)"/><path class="cls-196" d="M104.17,321.67l-10,87.5L41.67,375Z" transform="translate(0.02 0.02)"/><path class="cls-197" d="M94.17,409.17,0,416.67,41.67,375Z" transform="translate(0.02 0.02)"/><path class="cls-198" d="M0,416.67V333.33L41.67,375Z" transform="translate(0.02 0.02)"/><path class="cls-199" d="M104.17,321.67,180,348.33l-60.62,43.75Z" transform="translate(0.02 0.02)"/><path class="cls-200" d="M180,348.33l-33.33,48.34-27.29-4.59Z" transform="translate(0.02 0.02)"/><path class="cls-201" d="M146.67,396.67l-52.5,12.5,25.21-17.09Z" transform="translate(0.02 0.02)"/><path class="cls-202" d="M94.17,409.17l10-87.5,15.21,70.41Z" transform="translate(0.02 0.02)"/><path class="cls-203" d="M180,348.33l58.33-34.16-32.5,82.91Z" transform="translate(0.02 0.02)"/><path class="cls-204" d="M238.33,314.17l35.84,122.5-68.34-39.59Z" transform="translate(0.02 0.02)"/><path class="cls-205" d="M274.17,436.67l-127.5-40,59.16.41Z" transform="translate(0.02 0.02)"/><path class="cls-206" d="M146.67,396.67,180,348.33l25.83,48.75Z" transform="translate(0.02 0.02)"/><path class="cls-207" d="M238.33,314.17l107.5,37.5-54.58.21Z" transform="translate(0.02 0.02)"/><path class="cls-208" d="M345.83,351.67l-11.66,42.5-42.92-42.29Z" transform="translate(0.02 0.02)"/><path class="cls-209" d="M334.17,394.17l-60,42.5,17.08-84.79Z" transform="translate(0.02 0.02)"/><path class="cls-210" d="M274.17,436.67l-35.84-122.5,52.92,37.71Z" transform="translate(0.02 0.02)"/><path class="cls-211" d="M345.83,351.67l72.5-25.84-31.87,43.75Z" transform="translate(0.02 0.02)"/><path class="cls-212" d="M418.33,325.83l-28.33,75-3.54-31.25Z" transform="translate(0.02 0.02)"/><path class="cls-213" d="M390,400.83l-55.83-6.66,52.29-24.59Z" transform="translate(0.02 0.02)"/><path class="cls-214" d="M334.17,394.17l11.66-42.5,40.63,17.91Z" transform="translate(0.02 0.02)"/><path class="cls-215" d="M418.33,325.83l102.5-18.33-78.75,48.12Z" transform="translate(0.02 0.02)"/><path class="cls-216" d="M520.83,307.5,478.33,440l-36.25-84.38Z" transform="translate(0.02 0.02)"/><path class="cls-217" d="M478.33,440,390,400.83l52.08-45.21Z" transform="translate(0.02 0.02)"/><path class="cls-218" d="M390,400.83l28.33-75,23.75,29.79Z" transform="translate(0.02 0.02)"/><path class="cls-219" d="M520.83,307.5,570,340l-18.12,26.88Z" transform="translate(0.02 0.02)"/><path class="cls-220" d="M570,340l33.33,65-51.45-38.12Z" transform="translate(0.02 0.02)"/><path class="cls-221" d="M603.33,405l-125,35,73.55-73.12Z" transform="translate(0.02 0.02)"/><path class="cls-222" d="M478.33,440l42.5-132.5,31,59.38Z" transform="translate(0.02 0.02)"/><path class="cls-223" d="M570,340l120-22.5-64.17,74.17Z" transform="translate(0.02 0.02)"/><path class="cls-224" d="M690,317.5l-7.5,81.67-56.67-7.5Z" transform="translate(0.02 0.02)"/><path class="cls-225" d="M682.5,399.17,603.33,405l22.5-13.33Z" transform="translate(0.02 0.02)"/><path class="cls-226" d="M603.33,405,570,340l55.83,51.67Z" transform="translate(0.02 0.02)"/><path class="cls-227" d="M690,317.5l48.33,25L729.17,361Z" transform="translate(0.02 0.02)"/><path class="cls-228" d="M738.33,342.5,721.67,435l7.5-74Z" transform="translate(0.02 0.02)"/><path class="cls-229" d="M721.67,435,682.5,399.17,729.17,361Z" transform="translate(0.02 0.02)"/><path class="cls-230" d="M682.5,399.17,690,317.5,729.17,361Z" transform="translate(0.02 0.02)"/><path class="cls-231" d="M738.33,342.5l100-33.33-37.08,53.12Z" transform="translate(0.02 0.02)"/><path class="cls-232" d="M838.33,309.17l-24.16,127.5-12.92-74.38Z" transform="translate(0.02 0.02)"/><path class="cls-233" d="M814.17,436.67,721.67,435l79.58-72.71Z" transform="translate(0.02 0.02)"/><path class="cls-234" d="M721.67,435l16.66-92.5,62.92,19.79Z" transform="translate(0.02 0.02)"/><path class="cls-235" d="M838.33,309.17l69.17,10-42.92,47.29Z" transform="translate(0.02 0.02)"/><path class="cls-236" d="M907.5,319.17v97.5l-42.92-50.21Z" transform="translate(0.02 0.02)"/><path class="cls-237" d="M907.5,416.67l-93.33,20,50.41-70.21Z" transform="translate(0.02 0.02)"/><path class="cls-238" d="M814.17,436.67l24.16-127.5,26.25,57.29Z" transform="translate(0.02 0.02)"/><path class="cls-239" d="M907.5,319.17l92.5,14.16-44.79,44Z" transform="translate(0.02 0.02)"/><path class="cls-240" d="M1000,333.33v83.34l-44.79-39.38Z" transform="translate(0.02 0.02)"/><path class="cls-241" d="M1000,416.67H907.5l47.71-39.38Z" transform="translate(0.02 0.02)"/><path class="cls-242" d="M907.5,416.67v-97.5l47.71,58.12Z" transform="translate(0.02 0.02)"/><path class="cls-243" d="M0,416.67l94.17-7.5-52.5,49.16Z" transform="translate(0.02 0.02)"/><path class="cls-244" d="M94.17,409.17,60.83,500.83l-19.16-42.5Z" transform="translate(0.02 0.02)"/><path class="cls-245" d="M60.83,500.83,0,500l41.67-41.67Z" transform="translate(0.02 0.02)"/><path class="cls-246" d="M0,500V416.67l41.67,41.66Z" transform="translate(0.02 0.02)"/><path class="cls-247" d="M94.17,409.17l52.5-12.5-23.13,68.95Z" transform="translate(0.02 0.02)"/><path class="cls-248" d="M146.67,396.67l24.16,80-47.29-11.05Z" transform="translate(0.02 0.02)"/><path class="cls-249" d="M170.83,476.67l-110,24.16,62.71-35.21Z" transform="translate(0.02 0.02)"/><path class="cls-250" d="M60.83,500.83l33.34-91.66,29.37,56.45Z" transform="translate(0.02 0.02)"/><path class="cls-251" d="M146.67,396.67l127.5,40-76.67,2.5Z" transform="translate(0.02 0.02)"/><path class="cls-252" d="M274.17,436.67,240,529.17l-42.5-90Z" transform="translate(0.02 0.02)"/><path class="cls-253" d="M240,529.17l-69.17-52.5,26.67-37.5Z" transform="translate(0.02 0.02)"/><path class="cls-254" d="M170.83,476.67l-24.16-80,50.83,42.5Z" transform="translate(0.02 0.02)"/><path class="cls-255" d="M274.17,436.67l60-42.5-49.79,85Z" transform="translate(0.02 0.02)"/><path class="cls-256" d="M334.17,394.17l-3.34,100-46.45-15Z" transform="translate(0.02 0.02)"/><path class="cls-257" d="M330.83,494.17l-90.83,35,44.38-50Z" transform="translate(0.02 0.02)"/><path class="cls-258" d="M240,529.17l34.17-92.5,10.21,42.5Z" transform="translate(0.02 0.02)"/><path class="cls-259" d="M334.17,394.17,390,400.83l-27.29,47.71Z" transform="translate(0.02 0.02)"/><path class="cls-260" d="M390,400.83l30,71.67-57.29-24Z" transform="translate(0.02 0.02)"/><path class="cls-261" d="M420,472.5l-89.17,21.67,31.88-45.63Z" transform="translate(0.02 0.02)"/><path class="cls-262" d="M330.83,494.17l3.34-100,28.54,54.37Z" transform="translate(0.02 0.02)"/><path class="cls-263" d="M390,400.83,478.33,440,442.5,461Z" transform="translate(0.02 0.02)"/><path class="cls-264" d="M478.33,440l35,37.5L442.5,461Z" transform="translate(0.02 0.02)"/><path class="cls-265" d="M513.33,477.5l-93.33-5L442.5,461Z" transform="translate(0.02 0.02)"/><path class="cls-266" d="M420,472.5l-30-71.67L442.5,461Z" transform="translate(0.02 0.02)"/><path class="cls-267" d="M478.33,440l125-35-57.08,44.17Z" transform="translate(0.02 0.02)"/><path class="cls-268" d="M603.33,405,587.5,493.33l-41.25-44.16Z" transform="translate(0.02 0.02)"/><path class="cls-269" d="M587.5,493.33,513.33,477.5l32.92-28.33Z" transform="translate(0.02 0.02)"/><path class="cls-270" d="M513.33,477.5l-35-37.5,67.92,9.17Z" transform="translate(0.02 0.02)"/><path class="cls-271" d="M603.33,405l79.17-5.83-54.17,68.75Z" transform="translate(0.02 0.02)"/><path class="cls-272" d="M682.5,399.17l-35.83,72.5-18.34-3.75Z" transform="translate(0.02 0.02)"/><path class="cls-273" d="M646.67,471.67,587.5,493.33l40.83-25.41Z" transform="translate(0.02 0.02)"/><path class="cls-274" d="M587.5,493.33,603.33,405l25,62.92Z" transform="translate(0.02 0.02)"/><path class="cls-275" d="M682.5,399.17,721.67,435l1.45,3.12Z" transform="translate(0.02 0.02)"/><path class="cls-276" d="M721.67,435l4.16,81.67-2.71-78.55Z" transform="translate(0.02 0.02)"/><path class="cls-277" d="M725.83,516.67l-79.16-45,76.45-33.55Z" transform="translate(0.02 0.02)"/><path class="cls-278" d="M646.67,471.67l35.83-72.5,40.62,38.95Z" transform="translate(0.02 0.02)"/><path class="cls-279" d="M721.67,435l92.5,1.67-30.42,7.91Z" transform="translate(0.02 0.02)"/><path class="cls-280" d="M814.17,436.67l17.5,84.16-47.92-76.25Z" transform="translate(0.02 0.02)"/><path class="cls-281" d="M831.67,520.83l-105.84-4.16,57.92-72.09Z" transform="translate(0.02 0.02)"/><path class="cls-282" d="M725.83,516.67,721.67,435l62.08,9.58Z" transform="translate(0.02 0.02)"/><path class="cls-175" d="M814.17,436.67l93.33-20-17.29,30Z" transform="translate(0.02 0.02)"/><path class="cls-283" d="M907.5,416.67,940,528.33l-49.79-81.66Z" transform="translate(0.02 0.02)"/><path class="cls-284" d="M940,528.33l-108.33-7.5,58.54-74.16Z" transform="translate(0.02 0.02)"/><path class="cls-285" d="M831.67,520.83l-17.5-84.16,76,10Z" transform="translate(0.02 0.02)"/><path class="cls-286" d="M907.5,416.67H1000l-60.62,29.16Z" transform="translate(0.02 0.02)"/><path class="cls-287" d="M1000,416.67V500l-60.62-54.17Z" transform="translate(0.02 0.02)"/><path class="cls-288" d="M1000,500l-60,28.33-.62-82.5Z" transform="translate(0.02 0.02)"/><path class="cls-289" d="M940,528.33,907.5,416.67l31.88,29.16Z" transform="translate(0.02 0.02)"/><path class="cls-290" d="M0,500l60.83.83L41.67,541.67Z" transform="translate(0.02 0.02)"/><path class="cls-291" d="M60.83,500.83l19.17,75L41.67,541.67Z" transform="translate(0.02 0.02)"/><path class="cls-292" d="M80,575.83l-80,7.5,41.67-41.66Z" transform="translate(0.02 0.02)"/><path class="cls-293" d="M0,583.33V500l41.67,41.67Z" transform="translate(0.02 0.02)"/><path class="cls-294" d="M60.83,500.83l110-24.16L106,554.38Z" transform="translate(0.02 0.02)"/><path class="cls-295" d="M170.83,476.67,180,597.5l-74-43.12Z" transform="translate(0.02 0.02)"/><path class="cls-296" d="M180,597.5,80,575.83l26-21.45Z" transform="translate(0.02 0.02)"/><path class="cls-297" d="M80,575.83l-19.17-75L106,554.38Z" transform="translate(0.02 0.02)"/><path class="cls-298" d="M170.83,476.67,240,529.17l-49.79,24.16Z" transform="translate(0.02 0.02)"/><path class="cls-299" d="M240,529.17l29.17,43.33-79-19.17Z" transform="translate(0.02 0.02)"/><path class="cls-300" d="M269.17,572.5,180,597.5l10.21-44.17Z" transform="translate(0.02 0.02)"/><path class="cls-301" d="M180,597.5l-9.17-120.83,19.38,76.66Z" transform="translate(0.02 0.02)"/><path class="cls-302" d="M240,529.17l90.83-35-60,34.79Z" transform="translate(0.02 0.02)"/><path class="cls-303" d="M330.83,494.17l-7.5,106.66L270.83,529Z" transform="translate(0.02 0.02)"/><path class="cls-304" d="M323.33,600.83,269.17,572.5,270.83,529Z" transform="translate(0.02 0.02)"/><path class="cls-305" d="M269.17,572.5,240,529.17l30.83-.21Z" transform="translate(0.02 0.02)"/><path class="cls-306" d="M330.83,494.17,420,472.5,356.88,521Z" transform="translate(0.02 0.02)"/><path class="cls-307" d="M420,472.5,406.67,579.17,356.88,521Z" transform="translate(0.02 0.02)"/><path class="cls-308" d="M406.67,579.17l-83.34,21.66L356.88,521Z" transform="translate(0.02 0.02)"/><path class="cls-309" d="M323.33,600.83l7.5-106.66L356.88,521Z" transform="translate(0.02 0.02)"/><path class="cls-310" d="M420,472.5l93.33,5-57.5,55.62Z" transform="translate(0.02 0.02)"/><path class="cls-311" d="M513.33,477.5,496.67,608.33l-40.84-75.21Z" transform="translate(0.02 0.02)"/><path class="cls-312" d="M496.67,608.33l-90-29.16,49.16-46Z" transform="translate(0.02 0.02)"/><path class="cls-313" d="M406.67,579.17,420,472.5l35.83,60.62Z" transform="translate(0.02 0.02)"/><path class="cls-314" d="M513.33,477.5l74.17,15.83-25,33.55Z" transform="translate(0.02 0.02)"/><path class="cls-315" d="M587.5,493.33l10.83,89.17L562.5,526.88Z" transform="translate(0.02 0.02)"/><path class="cls-316" d="M598.33,582.5,496.67,608.33l65.83-81.45Z" transform="translate(0.02 0.02)"/><path class="cls-317" d="M496.67,608.33,513.33,477.5l49.17,49.38Z" transform="translate(0.02 0.02)"/><path class="cls-318" d="M587.5,493.33l59.17-21.66-.63,85Z" transform="translate(0.02 0.02)"/><path class="cls-319" d="M646.67,471.67,687.5,603.33,646,556.67Z" transform="translate(0.02 0.02)"/><path class="cls-320" d="M687.5,603.33,598.33,582.5,646,556.67Z" transform="translate(0.02 0.02)"/><path class="cls-321" d="M598.33,582.5,587.5,493.33,646,556.67Z" transform="translate(0.02 0.02)"/><path class="cls-322" d="M646.67,471.67l79.16,45-26.66,12.08Z" transform="translate(0.02 0.02)"/><path class="cls-323" d="M725.83,516.67l43.34,50-70-37.92Z" transform="translate(0.02 0.02)"/><path class="cls-324" d="M769.17,566.67,687.5,603.33l11.67-74.58Z" transform="translate(0.02 0.02)"/><path class="cls-325" d="M687.5,603.33,646.67,471.67l52.5,57.08Z" transform="translate(0.02 0.02)"/><path class="cls-326" d="M725.83,516.67l105.84,4.16-45.21,8.34Z" transform="translate(0.02 0.02)"/><path class="cls-327" d="M831.67,520.83l-12.5,51.67-32.71-43.33Z" transform="translate(0.02 0.02)"/><path class="cls-328" d="M819.17,572.5l-50-5.83,17.29-37.5Z" transform="translate(0.02 0.02)"/><path class="cls-329" d="M769.17,566.67l-43.34-50,60.63,12.5Z" transform="translate(0.02 0.02)"/><path class="cls-330" d="M831.67,520.83,940,528.33l-78.75,1Z" transform="translate(0.02 0.02)"/><path class="cls-331" d="M940,528.33l-35.83,47.5-42.92-46.45Z" transform="translate(0.02 0.02)"/><path class="cls-332" d="M904.17,575.83l-85-3.33,42.08-43.12Z" transform="translate(0.02 0.02)"/><path class="cls-333" d="M819.17,572.5l12.5-51.67,29.58,8.55Z" transform="translate(0.02 0.02)"/><path class="cls-334" d="M940,528.33,1000,500l-25.83,59.58Z" transform="translate(0.02 0.02)"/><path class="cls-335" d="M1000,500v83.33l-25.83-23.75Z" transform="translate(0.02 0.02)"/><path class="cls-336" d="M1000,583.33l-95.83-7.5,70-16.25Z" transform="translate(0.02 0.02)"/><path class="cls-337" d="M904.17,575.83,940,528.33l34.17,31.25Z" transform="translate(0.02 0.02)"/><path class="cls-338" d="M0,583.33l80-7.5L41.67,625Z" transform="translate(0.02 0.02)"/><path class="cls-339" d="M80,575.83l.83,66.67L41.67,625Z" transform="translate(0.02 0.02)"/><path class="cls-340" d="M80.83,642.5,0,666.67,41.67,625Z" transform="translate(0.02 0.02)"/><path class="cls-341" d="M0,666.67V583.33L41.67,625Z" transform="translate(0.02 0.02)"/><path class="cls-342" d="M80,575.83,180,597.5,105.83,609Z" transform="translate(0.02 0.02)"/><path class="cls-343" d="M180,597.5l10,81.67L105.83,609Z" transform="translate(0.02 0.02)"/><path class="cls-344" d="M190,679.17,80.83,642.5l25-33.54Z" transform="translate(0.02 0.02)"/><path class="cls-345" d="M80.83,642.5,80,575.83,105.83,609Z" transform="translate(0.02 0.02)"/><path class="cls-346" d="M180,597.5l89.17-25L210,636.88Z" transform="translate(0.02 0.02)"/><path class="cls-347" d="M269.17,572.5l-38.34,120L210,636.88Z" transform="translate(0.02 0.02)"/><path class="cls-348" d="M230.83,692.5,190,679.17l20-42.29Z" transform="translate(0.02 0.02)"/><path class="cls-349" d="M190,679.17,180,597.5l30,39.38Z" transform="translate(0.02 0.02)"/><path class="cls-350" d="M269.17,572.5l54.16,28.33-16,15.63Z" transform="translate(0.02 0.02)"/><path class="cls-351" d="M323.33,600.83,327.5,695l-20.21-78.54Z" transform="translate(0.02 0.02)"/><path class="cls-352" d="M327.5,695l-96.67-2.5,76.46-76Z" transform="translate(0.02 0.02)"/><path class="cls-353" d="M230.83,692.5l38.34-120,38.12,44Z" transform="translate(0.02 0.02)"/><path class="cls-354" d="M323.33,600.83l83.34-21.66-40,54.37Z" transform="translate(0.02 0.02)"/><path class="cls-355" d="M406.67,579.17l-9.17,91.66-30.83-37.29Z" transform="translate(0.02 0.02)"/><path class="cls-356" d="M397.5,670.83,327.5,695l39.17-61.46Z" transform="translate(0.02 0.02)"/><path class="cls-357" d="M327.5,695l-4.17-94.17,43.34,32.71Z" transform="translate(0.02 0.02)"/><path class="cls-358" d="M406.67,579.17l90,29.16-58.34,12.29Z" transform="translate(0.02 0.02)"/><path class="cls-359" d="M496.67,608.33l7.5,84.17-65.84-71.88Z" transform="translate(0.02 0.02)"/><path class="cls-360" d="M504.17,692.5,397.5,670.83l40.83-50.21Z" transform="translate(0.02 0.02)"/><path class="cls-361" d="M397.5,670.83l9.17-91.66,31.66,41.45Z" transform="translate(0.02 0.02)"/><path class="cls-362" d="M496.67,608.33,598.33,582.5,530,621.25Z" transform="translate(0.02 0.02)"/><path class="cls-363" d="M598.33,582.5,565,682.5l-35-61.25Z" transform="translate(0.02 0.02)"/><path class="cls-364" d="M565,682.5l-60.83,10L530,621.25Z" transform="translate(0.02 0.02)"/><path class="cls-365" d="M504.17,692.5l-7.5-84.17L530,621.25Z" transform="translate(0.02 0.02)"/><path class="cls-366" d="M598.33,582.5l89.17,20.83-50.42,4.79Z" transform="translate(0.02 0.02)"/><path class="cls-367" d="M687.5,603.33,644.17,655l-7.09-46.88Z" transform="translate(0.02 0.02)"/><path class="cls-368" d="M644.17,655,565,682.5l72.08-74.38Z" transform="translate(0.02 0.02)"/><path class="cls-369" d="M565,682.5l33.33-100,38.75,25.62Z" transform="translate(0.02 0.02)"/><path class="cls-370" d="M687.5,603.33l81.67-36.66L726,625.83Z" transform="translate(0.02 0.02)"/><path class="cls-371" d="M769.17,566.67l9.16,86.66L726,625.83Z" transform="translate(0.02 0.02)"/><path class="cls-372" d="M778.33,653.33,644.17,655,726,625.83Z" transform="translate(0.02 0.02)"/><path class="cls-373" d="M644.17,655l43.33-51.67L726,625.83Z" transform="translate(0.02 0.02)"/><path class="cls-374" d="M769.17,566.67l50,5.83-26,34.17Z" transform="translate(0.02 0.02)"/><path class="cls-375" d="M819.17,572.5,852.5,688.33l-59.38-81.66Z" transform="translate(0.02 0.02)"/><path class="cls-376" d="M852.5,688.33l-74.17-35,14.79-46.66Z" transform="translate(0.02 0.02)"/><path class="cls-377" d="M778.33,653.33l-9.16-86.66,24,40Z" transform="translate(0.02 0.02)"/><path class="cls-378" d="M819.17,572.5l85,3.33L886.46,634Z" transform="translate(0.02 0.02)"/><path class="cls-379" d="M904.17,575.83v110L886.46,634Z" transform="translate(0.02 0.02)"/><path class="cls-380" d="M904.17,685.83l-51.67,2.5,34-54.37Z" transform="translate(0.02 0.02)"/><path class="cls-381" d="M852.5,688.33,819.17,572.5,886.46,634Z" transform="translate(0.02 0.02)"/><path class="cls-382" d="M904.17,575.83l95.83,7.5-25.62,32.29Z" transform="translate(0.02 0.02)"/><path class="cls-383" d="M1000,583.33v83.34l-25.62-51Z" transform="translate(0.02 0.02)"/><path class="cls-384" d="M1000,666.67l-95.83,19.16,70.21-70.21Z" transform="translate(0.02 0.02)"/><path class="cls-385" d="M904.17,685.83v-110l70.21,39.79Z" transform="translate(0.02 0.02)"/><path class="cls-386" d="M0,666.67,80.83,642.5,41.67,708.33Z" transform="translate(0.02 0.02)"/><path class="cls-387" d="M80.83,642.5l-1.66,99.17-37.5-33.34Z" transform="translate(0.02 0.02)"/><path class="cls-388" d="M79.17,741.67,0,750l41.67-41.67Z" transform="translate(0.02 0.02)"/><path class="cls-389" d="M0,750V666.67l41.67,41.66Z" transform="translate(0.02 0.02)"/><path class="cls-390" d="M80.83,642.5,190,679.17,108.54,689Z" transform="translate(0.02 0.02)"/><path class="cls-391" d="M190,679.17l-1.67,51.66L108.54,689Z" transform="translate(0.02 0.02)"/><path class="cls-392" d="M188.33,730.83,79.17,741.67,108.54,689Z" transform="translate(0.02 0.02)"/><path class="cls-393" d="M79.17,741.67l1.66-99.17L108.54,689Z" transform="translate(0.02 0.02)"/><path class="cls-394" d="M190,679.17l40.83,13.33-32.5,13.12Z" transform="translate(0.02 0.02)"/><path class="cls-395" d="M230.83,692.5l30,59.17-62.5-46Z" transform="translate(0.02 0.02)"/><path class="cls-396" d="M260.83,751.67l-72.5-20.84,10-25.21Z" transform="translate(0.02 0.02)"/><path class="cls-397" d="M188.33,730.83,190,679.17l8.33,26.45Z" transform="translate(0.02 0.02)"/><path class="cls-398" d="M230.83,692.5,327.5,695l-47.29,11.46Z" transform="translate(0.02 0.02)"/><path class="cls-399" d="M327.5,695l4.17,30.83-51.46-19.37Z" transform="translate(0.02 0.02)"/><path class="cls-400" d="M331.67,725.83l-70.84,25.84,19.38-45.21Z" transform="translate(0.02 0.02)"/><path class="cls-401" d="M260.83,751.67l-30-59.17,49.38,14Z" transform="translate(0.02 0.02)"/><path class="cls-402" d="M327.5,695l70-24.17-19.79,64.59Z" transform="translate(0.02 0.02)"/><path class="cls-403" d="M397.5,670.83l9.17,56.67-29,7.92Z" transform="translate(0.02 0.02)"/><path class="cls-404" d="M406.67,727.5l-75-1.67,46,9.59Z" transform="translate(0.02 0.02)"/><path class="cls-405" d="M331.67,725.83,327.5,695l50.21,40.42Z" transform="translate(0.02 0.02)"/><path class="cls-406" d="M397.5,670.83,504.17,692.5,443.54,726Z" transform="translate(0.02 0.02)"/><path class="cls-407" d="M504.17,692.5l16.66,46.67L443.54,726Z" transform="translate(0.02 0.02)"/><path class="cls-408" d="M520.83,739.17,406.67,727.5,443.54,726Z" transform="translate(0.02 0.02)"/><path class="cls-409" d="M406.67,727.5l-9.17-56.67,46,55.21Z" transform="translate(0.02 0.02)"/><path class="cls-410" d="M504.17,692.5l60.83-10-36.46,12.29Z" transform="translate(0.02 0.02)"/><path class="cls-411" d="M565,682.5l-3.33,90.83-33.13-78.54Z" transform="translate(0.02 0.02)"/><path class="cls-412" d="M561.67,773.33l-40.84-34.16,7.71-44.38Z" transform="translate(0.02 0.02)"/><path class="cls-413" d="M520.83,739.17,504.17,692.5l24.37,2.29Z" transform="translate(0.02 0.02)"/><path class="cls-414" d="M565,682.5,644.17,655l-17.92,68.12Z" transform="translate(0.02 0.02)"/><path class="cls-415" d="M644.17,655,682.5,755l-56.25-31.88Z" transform="translate(0.02 0.02)"/><path class="cls-416" d="M682.5,755,561.67,773.33l64.58-50.21Z" transform="translate(0.02 0.02)"/><path class="cls-417" d="M561.67,773.33,565,682.5l61.25,40.62Z" transform="translate(0.02 0.02)"/><path class="cls-418" d="M644.17,655l134.16-1.67-73.12,37.92Z" transform="translate(0.02 0.02)"/><path class="cls-419" d="M778.33,653.33,770,755.83l-64.79-64.58Z" transform="translate(0.02 0.02)"/><path class="cls-420" d="M770,755.83,682.5,755l22.71-63.75Z" transform="translate(0.02 0.02)"/><path class="cls-421" d="M682.5,755,644.17,655l61,36.25Z" transform="translate(0.02 0.02)"/><path class="cls-422" d="M778.33,653.33l74.17,35L787.92,710Z" transform="translate(0.02 0.02)"/><path class="cls-423" d="M852.5,688.33,859.17,760l-71.25-50Z" transform="translate(0.02 0.02)"/><path class="cls-424" d="M859.17,760,770,755.83,787.92,710Z" transform="translate(0.02 0.02)"/><path class="cls-425" d="M770,755.83l8.33-102.5L787.92,710Z" transform="translate(0.02 0.02)"/><path class="cls-426" d="M852.5,688.33l51.67-2.5-22.71,13.75Z" transform="translate(0.02 0.02)"/><path class="cls-427" d="M904.17,685.83l-6.67,93.34-16-79.59Z" transform="translate(0.02 0.02)"/><path class="cls-428" d="M897.5,779.17,859.17,760l22.29-60.42Z" transform="translate(0.02 0.02)"/><path class="cls-429" d="M859.17,760l-6.67-71.67,29,11.25Z" transform="translate(0.02 0.02)"/><path class="cls-430" d="M904.17,685.83,1000,666.67l-32.29,34.79Z" transform="translate(0.02 0.02)"/><path class="cls-431" d="M1000,666.67V750l-32.29-48.54Z" transform="translate(0.02 0.02)"/><path class="cls-186" d="M1000,750,897.5,779.17l70.21-77.71Z" transform="translate(0.02 0.02)"/><path class="cls-432" d="M897.5,779.17l6.67-93.34,63.54,15.63Z" transform="translate(0.02 0.02)"/><path class="cls-433" d="M0,750l79.17-8.33-37.5,50Z" transform="translate(0.02 0.02)"/><path class="cls-434" d="M79.17,741.67l-16.67,80-20.83-30Z" transform="translate(0.02 0.02)"/><path class="cls-435" d="M62.5,821.67,0,833.33l41.67-41.66Z" transform="translate(0.02 0.02)"/><path class="cls-436" d="M0,833.33V750l41.67,41.67Z" transform="translate(0.02 0.02)"/><path class="cls-437" d="M79.17,741.67l109.16-10.84L139,800.42Z" transform="translate(0.02 0.02)"/><path class="cls-438" d="M188.33,730.83l3.34,120.84L139,800.42Z" transform="translate(0.02 0.02)"/><path class="cls-439" d="M191.67,851.67l-129.17-30L139,800.42Z" transform="translate(0.02 0.02)"/><path class="cls-440" d="M62.5,821.67l16.67-80L139,800.42Z" transform="translate(0.02 0.02)"/><path class="cls-441" d="M188.33,730.83l72.5,20.84-64.58,26.87Z" transform="translate(0.02 0.02)"/><path class="cls-442" d="M260.83,751.67,227.5,817.5l-31.25-39Z" transform="translate(0.02 0.02)"/><path class="cls-443" d="M227.5,817.5l-35.83,34.17,4.58-73.13Z" transform="translate(0.02 0.02)"/><path class="cls-444" d="M191.67,851.67l-3.34-120.84,7.92,47.71Z" transform="translate(0.02 0.02)"/><path class="cls-445" d="M260.83,751.67l70.84-25.84-46.46,77.09Z" transform="translate(0.02 0.02)"/><path class="cls-446" d="M331.67,725.83,352.5,851.67l-67.29-48.75Z" transform="translate(0.02 0.02)"/><path class="cls-447" d="M352.5,851.67l-125-34.17,57.71-14.58Z" transform="translate(0.02 0.02)"/><path class="cls-448" d="M227.5,817.5l33.33-65.83,24.38,51.25Z" transform="translate(0.02 0.02)"/><path class="cls-449" d="M331.67,725.83l75,1.67-19.59,63.12Z" transform="translate(0.02 0.02)"/><path class="cls-450" d="M406.67,727.5l16.66,90-36.25-26.88Z" transform="translate(0.02 0.02)"/><path class="cls-451" d="M423.33,817.5,352.5,851.67l34.58-61Z" transform="translate(0.02 0.02)"/><path class="cls-5" d="M352.5,851.67,331.67,725.83l55.41,64.79Z" transform="translate(0.02 0.02)"/><path class="cls-452" d="M406.67,727.5l114.16,11.67L456.67,801Z" transform="translate(0.02 0.02)"/><path class="cls-453" d="M520.83,739.17l-14.16,107.5-50-45.63Z" transform="translate(0.02 0.02)"/><path class="cls-454" d="M506.67,846.67,423.33,817.5,456.67,801Z" transform="translate(0.02 0.02)"/><path class="cls-455" d="M423.33,817.5l-16.66-90,50,73.54Z" transform="translate(0.02 0.02)"/><path class="cls-456" d="M520.83,739.17l40.84,34.16-4.79,34Z" transform="translate(0.02 0.02)"/><path class="cls-457" d="M561.67,773.33l15,31.67-19.79,2.29Z" transform="translate(0.02 0.02)"/><path class="cls-458" d="M576.67,805l-70,41.67,50.21-39.38Z" transform="translate(0.02 0.02)"/><path class="cls-459" d="M506.67,846.67l14.16-107.5,36,68.12Z" transform="translate(0.02 0.02)"/><path class="cls-460" d="M561.67,773.33,682.5,755l-69.58,55.83Z" transform="translate(0.02 0.02)"/><path class="cls-461" d="M682.5,755,640,823.33l-27.08-12.5Z" transform="translate(0.02 0.02)"/><path class="cls-462" d="M640,823.33,576.67,805l36.25,5.83Z" transform="translate(0.02 0.02)"/><path class="cls-463" d="M576.67,805l-15-31.67,51.25,37.5Z" transform="translate(0.02 0.02)"/><path class="cls-464" d="M682.5,755l87.5.83-51.88,57.09Z" transform="translate(0.02 0.02)"/><path class="cls-465" d="M770,755.83l-38.33,70-13.55-12.91Z" transform="translate(0.02 0.02)"/><path class="cls-466" d="M731.67,825.83,640,823.33l78.12-10.41Z" transform="translate(0.02 0.02)"/><path class="cls-467" d="M640,823.33,682.5,755l35.62,57.92Z" transform="translate(0.02 0.02)"/><path class="cls-468" d="M770,755.83,859.17,760l-62.5,29.79Z" transform="translate(0.02 0.02)"/><path class="cls-469" d="M859.17,760l-2.5,65.83-60-36Z" transform="translate(0.02 0.02)"/><path class="cls-470" d="M856.67,825.83h-125l65-36Z" transform="translate(0.02 0.02)"/><path class="cls-471" d="M731.67,825.83l38.33-70,26.67,34Z" transform="translate(0.02 0.02)"/><path class="cls-472" d="M859.17,760l38.33,19.17-26,17.5Z" transform="translate(0.02 0.02)"/><path class="cls-473" d="M897.5,779.17l34.17,26.66-60.21-9.16Z" transform="translate(0.02 0.02)"/><path class="cls-474" d="M931.67,805.83l-75,20,14.79-29.16Z" transform="translate(0.02 0.02)"/><path class="cls-475" d="M856.67,825.83l2.5-65.83,12.29,36.67Z" transform="translate(0.02 0.02)"/><path class="cls-476" d="M897.5,779.17,1000,750l-35.62,44Z" transform="translate(0.02 0.02)"/><path class="cls-477" d="M1000,750v83.33L964.38,794Z" transform="translate(0.02 0.02)"/><path class="cls-478" d="M1000,833.33l-68.33-27.5L964.38,794Z" transform="translate(0.02 0.02)"/><path class="cls-479" d="M931.67,805.83,897.5,779.17,964.38,794Z" transform="translate(0.02 0.02)"/><path class="cls-480" d="M0,833.33l62.5-11.66L41.67,875Z" transform="translate(0.02 0.02)"/><path class="cls-481" d="M62.5,821.67l43.33,100L41.67,875Z" transform="translate(0.02 0.02)"/><path class="cls-482" d="M105.83,921.67,0,916.67,41.67,875Z" transform="translate(0.02 0.02)"/><path class="cls-483" d="M0,916.67V833.33L41.67,875Z" transform="translate(0.02 0.02)"/><path class="cls-484" d="M62.5,821.67l129.17,30-78.55,13.75Z" transform="translate(0.02 0.02)"/><path class="cls-485" d="M191.67,851.67l-4.17,79.16-74.38-65.41Z" transform="translate(0.02 0.02)"/><path class="cls-486" d="M187.5,930.83l-81.67-9.16,7.29-56.25Z" transform="translate(0.02 0.02)"/><path class="cls-487" d="M105.83,921.67l-43.33-100,50.62,43.75Z" transform="translate(0.02 0.02)"/><path class="cls-488" d="M191.67,851.67,227.5,817.5l1.25,59.58Z" transform="translate(0.02 0.02)"/><path class="cls-489" d="M227.5,817.5,265.83,930l-37.08-52.92Z" transform="translate(0.02 0.02)"/><path class="cls-490" d="M265.83,930l-78.33.83,41.25-53.75Z" transform="translate(0.02 0.02)"/><path class="cls-491" d="M187.5,930.83l4.17-79.16,37.08,25.41Z" transform="translate(0.02 0.02)"/><path class="cls-492" d="M227.5,817.5l125,34.17L291,856Z" transform="translate(0.02 0.02)"/><path class="cls-493" d="M352.5,851.67,316.67,902.5,291,856Z" transform="translate(0.02 0.02)"/><path class="cls-494" d="M316.67,902.5,265.83,930,291,856Z" transform="translate(0.02 0.02)"/><path class="cls-495" d="M265.83,930,227.5,817.5,291,856Z" transform="translate(0.02 0.02)"/><path class="cls-496" d="M352.5,851.67l70.83-34.17-42.71,57.08Z" transform="translate(0.02 0.02)"/><path class="cls-497" d="M423.33,817.5,404.17,920l-23.55-45.42Z" transform="translate(0.02 0.02)"/><path class="cls-406" d="M404.17,920l-87.5-17.5,63.95-27.92Z" transform="translate(0.02 0.02)"/><path class="cls-498" d="M316.67,902.5l35.83-50.83,28.12,22.91Z" transform="translate(0.02 0.02)"/><path class="cls-499" d="M423.33,817.5l83.34,29.17-31.67,31Z" transform="translate(0.02 0.02)"/><path class="cls-500" d="M506.67,846.67l-.84,60-30.83-29Z" transform="translate(0.02 0.02)"/><path class="cls-501" d="M505.83,906.67,404.17,920,475,877.71Z" transform="translate(0.02 0.02)"/><path class="cls-502" d="M404.17,920l19.16-102.5L475,877.71Z" transform="translate(0.02 0.02)"/><path class="cls-503" d="M506.67,846.67l70-41.67-32.5,91.67Z" transform="translate(0.02 0.02)"/><path class="cls-504" d="M576.67,805,567.5,935l-23.33-38.33Z" transform="translate(0.02 0.02)"/><path class="cls-505" d="M567.5,935l-61.67-28.33,38.34-10Z" transform="translate(0.02 0.02)"/><path class="cls-506" d="M505.83,906.67l.84-60,37.5,50Z" transform="translate(0.02 0.02)"/><path class="cls-507" d="M576.67,805,640,823.33l-3.33,52.09Z" transform="translate(0.02 0.02)"/><path class="cls-508" d="M640,823.33l42.5,105-45.83-52.91Z" transform="translate(0.02 0.02)"/><path class="cls-509" d="M682.5,928.33,567.5,935l69.17-59.58Z" transform="translate(0.02 0.02)"/><path class="cls-510" d="M567.5,935l9.17-130,60,70.42Z" transform="translate(0.02 0.02)"/><path class="cls-511" d="M640,823.33l91.67,2.5-25,61.67Z" transform="translate(0.02 0.02)"/><path class="cls-512" d="M731.67,825.83l6.66,75L706.67,887.5Z" transform="translate(0.02 0.02)"/><path class="cls-513" d="M738.33,900.83l-55.83,27.5,24.17-40.83Z" transform="translate(0.02 0.02)"/><path class="cls-514" d="M682.5,928.33l-42.5-105,66.67,64.17Z" transform="translate(0.02 0.02)"/><path class="cls-515" d="M731.67,825.83h125l-79.59,65.63Z" transform="translate(0.02 0.02)"/><path class="cls-516" d="M856.67,825.83,830.83,895l-53.75-3.54Z" transform="translate(0.02 0.02)"/><path class="cls-517" d="M830.83,895l-92.5,5.83,38.75-9.37Z" transform="translate(0.02 0.02)"/><path class="cls-518" d="M738.33,900.83l-6.66-75,45.41,65.63Z" transform="translate(0.02 0.02)"/><path class="cls-519" d="M856.67,825.83l75-20-49.17,84Z" transform="translate(0.02 0.02)"/><path class="cls-520" d="M931.67,805.83,904.17,922.5,882.5,889.79Z" transform="translate(0.02 0.02)"/><path class="cls-521" d="M904.17,922.5,830.83,895l51.67-5.21Z" transform="translate(0.02 0.02)"/><path class="cls-522" d="M830.83,895l25.84-69.17,25.83,64Z" transform="translate(0.02 0.02)"/><path class="cls-523" d="M931.67,805.83l68.33,27.5-22.92,22.29Z" transform="translate(0.02 0.02)"/><path class="cls-524" d="M1000,833.33v83.34l-22.92-61Z" transform="translate(0.02 0.02)"/><path class="cls-525" d="M1000,916.67l-95.83,5.83,72.91-66.88Z" transform="translate(0.02 0.02)"/><path class="cls-526" d="M904.17,922.5l27.5-116.67,45.41,49.79Z" transform="translate(0.02 0.02)"/><path class="cls-527" d="M0,916.67l105.83,5L41.67,958.33Z" transform="translate(0.02 0.02)"/><path class="cls-528" d="M105.83,921.67,83.33,1000,41.67,958.33Z" transform="translate(0.02 0.02)"/><path class="cls-529" d="M83.33,1000H0l41.67-41.67Z" transform="translate(0.02 0.02)"/><path class="cls-530" d="M0,1000V916.67l41.67,41.66Z" transform="translate(0.02 0.02)"/><path class="cls-531" d="M105.83,921.67l81.67,9.16-74.38,41.25Z" transform="translate(0.02 0.02)"/><path class="cls-532" d="M187.5,930.83,166.67,1000l-53.55-27.92Z" transform="translate(0.02 0.02)"/><path class="cls-533" d="M166.67,1000H83.33l29.79-27.92Z" transform="translate(0.02 0.02)"/><path class="cls-534" d="M83.33,1000l22.5-78.33,7.29,50.41Z" transform="translate(0.02 0.02)"/><path class="cls-535" d="M187.5,930.83l78.33-.83-53.95,19.38Z" transform="translate(0.02 0.02)"/><path class="cls-536" d="M265.83,930,250,1000l-38.12-50.62Z" transform="translate(0.02 0.02)"/><path class="cls-537" d="M250,1000H166.67l45.21-50.62Z" transform="translate(0.02 0.02)"/><path class="cls-538" d="M166.67,1000l20.83-69.17,24.38,18.55Z" transform="translate(0.02 0.02)"/><path class="cls-539" d="M265.83,930l50.84-27.5L312.29,955Z" transform="translate(0.02 0.02)"/><path class="cls-540" d="M316.67,902.5l16.66,97.5-21-45Z" transform="translate(0.02 0.02)"/><path class="cls-541" d="M333.33,1000H250l62.29-45Z" transform="translate(0.02 0.02)"/><path class="cls-542" d="M250,1000l15.83-70,46.46,25Z" transform="translate(0.02 0.02)"/><path class="cls-543" d="M316.67,902.5l87.5,17.5-22.5,42.29Z" transform="translate(0.02 0.02)"/><path class="cls-544" d="M404.17,920l12.5,80-35-37.71Z" transform="translate(0.02 0.02)"/><path class="cls-545" d="M416.67,1000H333.33l48.34-37.71Z" transform="translate(0.02 0.02)"/><path class="cls-546" d="M333.33,1000l-16.66-97.5,65,59.79Z" transform="translate(0.02 0.02)"/><path class="cls-547" d="M404.17,920l101.66-13.33-36.45,41.66Z" transform="translate(0.02 0.02)"/><path class="cls-548" d="M505.83,906.67,500,1000l-30.62-51.67Z" transform="translate(0.02 0.02)"/><path class="cls-549" d="M500,1000H416.67l52.71-51.67Z" transform="translate(0.02 0.02)"/><path class="cls-550" d="M416.67,1000l-12.5-80,65.21,28.33Z" transform="translate(0.02 0.02)"/><path class="cls-551" d="M505.83,906.67,567.5,935,544,952.5Z" transform="translate(0.02 0.02)"/><path class="cls-552" d="M567.5,935l15.83,65L544,952.5Z" transform="translate(0.02 0.02)"/><path class="cls-553" d="M583.33,1000H500l44-47.5Z" transform="translate(0.02 0.02)"/><path class="cls-554" d="M500,1000l5.83-93.33L544,952.5Z" transform="translate(0.02 0.02)"/><path class="cls-555" d="M567.5,935l115-6.67L626,952.08Z" transform="translate(0.02 0.02)"/><path class="cls-556" d="M682.5,928.33,666.67,1000,626,952.08Z" transform="translate(0.02 0.02)"/><path class="cls-557" d="M666.67,1000H583.33L626,952.08Z" transform="translate(0.02 0.02)"/><path class="cls-558" d="M583.33,1000,567.5,935,626,952.08Z" transform="translate(0.02 0.02)"/><path class="cls-559" d="M682.5,928.33l55.83-27.5-26,46.25Z" transform="translate(0.02 0.02)"/><path class="cls-560" d="M738.33,900.83,750,1000l-37.71-52.92Z" transform="translate(0.02 0.02)"/><path class="cls-561" d="M750,1000H666.67l45.62-52.92Z" transform="translate(0.02 0.02)"/><path class="cls-562" d="M666.67,1000l15.83-71.67,29.79,18.75Z" transform="translate(0.02 0.02)"/><path class="cls-563" d="M738.33,900.83l92.5-5.83-22.08,43.54Z" transform="translate(0.02 0.02)"/><path class="cls-564" d="M830.83,895l2.5,105-24.58-61.46Z" transform="translate(0.02 0.02)"/><path class="cls-565" d="M833.33,1000H750l58.75-61.46Z" transform="translate(0.02 0.02)"/><path class="cls-566" d="M750,1000l-11.67-99.17,70.42,37.71Z" transform="translate(0.02 0.02)"/><path class="cls-567" d="M830.83,895l73.34,27.5-32.29,35.42Z" transform="translate(0.02 0.02)"/><path class="cls-568" d="M904.17,922.5l12.5,77.5-44.79-42.08Z" transform="translate(0.02 0.02)"/><path class="cls-569" d="M916.67,1000H833.33l38.55-42.08Z" transform="translate(0.02 0.02)"/><path class="cls-570" d="M833.33,1000l-2.5-105,41,62.92Z" transform="translate(0.02 0.02)"/><path class="cls-571" d="M904.17,922.5l95.83-5.83L962.71,964Z" transform="translate(0.02 0.02)"/><path class="cls-572" d="M1000,916.67V1000l-37.29-36Z" transform="translate(0.02 0.02)"/><path class="cls-426" d="M1000,1000H916.67l46-36Z" transform="translate(0.02 0.02)"/><path class="cls-573" d="M916.67,1000l-12.5-77.5L962.71,964Z" transform="translate(0.02 0.02)"/></g></g></svg>